<svg xmlns="http://www.w3.org/2000/svg" width="109.184" height="96.461" viewBox="0 0 109.184 96.461">
  <g id="Group_704" data-name="Group 704" transform="translate(-83.125 -73.667)">
    <path id="Path_24175" data-name="Path 24175" d="M83.23,170v-7.47l.06-6.56c0-3.33,0-6.65.07-10v-.76a5.42,5.42,0,0,1,0-.57.86.86,0,0,1,.74-.9l.9-.23c1.35-.33,2.71-.66,4.07-1l6.8-1.73,9-2.28,8-2,9.18-2.29,6.55-1.62,7.52-1.84L143,129.1l6.27-1.51,6.85-1.65,6-1.42,5.06-1.19,6.36-1.48,5-1.17,9.1-2.14c1.17-.27,2.33-.57,3.5-.86l.52-.14c.33-.07.46,0,.5.35a1.152,1.152,0,0,1,0,.19c0,.41-.06.82-.07,1.24q-.09,7.46-.17,14.91l-.06,6.59c0,.41-.09.56-.47.7a6.994,6.994,0,0,1-.75.21l-3.4.84-7.27,1.84-12,3-10.68,2.71c-5.19,1.34-10.37,2.71-15.53,4.18q-10.81,3.09-21.7,6L107,163.8q-6.9,1.81-13.8,3.59L86.89,169l-2.71.68c-.19.05-.37.14-.56.2l-.39.13m106-48.78-.3.05c-.77.19-1.55.37-2.32.57l-6.8,1.73-10.24,2.6L158.34,129l-8.14,2.07-6.41,1.61c-3.75.95-7.52,1.88-11.26,2.88-4.12,1.11-8.22,2.27-12.33,3.41q-8.82,2.44-17.65,4.89c-3.24.89-6.5,1.74-9.75,2.62-.74.19-1.47.38-2.19.63a6.5,6.5,0,0,1-2,.47.46.46,0,0,0-.45.43,1.51,1.51,0,0,0,0,.3c0,.78,0,1.57,0,2.36l-.09,12.12v.62c0,.21.12.28.34.25a.78.78,0,0,0,.21,0c.34-.1.69-.21,1-.3l7.79-2,9.44-2.44,8-2.06L125,154.29l12.59-3.15,9.44-2.33,9.76-2.39,10-2.4c3-.72,6-1.42,9-2.13l7-1.62,4.23-1c.38-.08.76-.16,1.13-.26a.9.9,0,0,0,.71-.77v-1.35c.07-2.19.16-4.37.21-6.56.07-3,.11-5.93.17-8.89v-.26" transform="translate(0.02)" fill="#fff" stroke="#000" stroke-miterlimit="10" stroke-width="0.25"/>
    <path id="Path_24176" data-name="Path 24176" d="M83.4,143.48v-.37q.09-9.8.17-19.6c0-1.75,0-3.49.05-5.24,0-.68.18-.8.77-.94l8.06-2,9.78-2.45,9.65-2.4,6.57-1.63,8.66-2.11q2.65-.66,5.32-1.29l8.14-2,6.45-1.54,7.26-1.7,5.56-1.29,4.36-1,4.25-1,5.12-1.18,5.93-1.41c.61-.14,1.21-.31,1.82-.45l1.18-.28c.45-.1.53,0,.54.43v.41L182.78,116v.93a.68.68,0,0,1-.49.67l-.57.16-5.26,1.32L166,121.7c-4,1-7.93,2-11.9,3s-8.15,2-12.19,3.17c-2.9.81-5.79,1.64-8.68,2.47-6.3,1.8-12.62,3.48-19,5.15-5.36,1.42-10.73,2.81-16.1,4.21l-11.85,3.07c-.83.22-1.66.42-2.5.63l-.45.08m4.94-14.09h0v7.35a1.92,1.92,0,0,0,0,.24c0,.23.13.31.35.27l.26-.07c1.56-.49,3.13-1,4.72-1.34.93-.22,1.87-.38,2.8-.62l9.87-2.52,13-3.31,9.51-2.38c2.71-.68,5.42-1.34,8.13-2l10.5-2.56,5.85-1.4,7.56-1.8,8.74-2,5.06-1.17,4.1-.94a.89.89,0,0,0,.82-1V114c0-1.28.07-2.55.11-3.83s.09-2.45.14-3.68c0-1,.1-2,.13-3.06s0-2,.05-3,0-1.79,0-2.68c0-.41-.14-.52-.53-.45h-.14L177,98l-8.3,2.09-10.74,2.74L149.49,105l-9.57,2.39c-3.29.83-6.59,1.66-9.87,2.51q-7.85,2-15.62,4.3c-1.92.55-3.84,1.1-5.76,1.63q-5.06,1.38-10.1,2.72L89.2,121a3.571,3.571,0,0,0-.46.16.54.54,0,0,0-.36.44,4.549,4.549,0,0,0,0,.52v7.24" transform="translate(0.02)" fill="#fff" stroke="#000" stroke-miterlimit="10" stroke-width="0.25"/>
    <path id="Path_24177" data-name="Path 24177" d="M156,73.8v.27c0,3.31-.07,6.63-.11,10q-.06,5.48-.11,11V97.2a.72.72,0,0,1-.62.75l-2.6.66-6.77,1.72c-4.25,1.09-8.51,2.18-12.75,3.3-2.66.71-5.31,1.47-8,2.22s-5.43,1.62-8.16,2.38q-6.27,1.74-12.55,3.41c-4.26,1.15-8.52,2.27-12.78,3.4l-7.1,1.85c-.27.07-.55.11-.86.18v-.36c0-2.3.06-4.59.07-6.89V91.76a.77.77,0,0,1,.63-.8l2.2-.59,8.28-2.06,8.73-2.17,7.53-1.84,5.34-1.3,7.59-1.81,7-1.64,5.73-1.31L142,77l5-1.12,6.68-1.52,1.86-.47.52-.1m-67.51,37h.23l1.31-.34q5.79-1.51,11.59-3,7.34-1.89,14.68-3.74c2.47-.63,5-1.24,7.44-1.85l7.66-1.87L139.47,98l5.59-1.3,4.52-1c.64-.14,1.29-.26,1.94-.39l.37-.09a.7.7,0,0,0,.54-.6,2.16,2.16,0,0,0,0-.35c0-.81,0-1.61.08-2.42.06-1.46.13-2.92.2-4.38s.11-2.77.18-4.15c.08-1.79.17-3.59.16-5.39v-.36h-.27l-.79.19-11.9,3-12.91,3.29c-4,1-8,2-12,3.08-3,.81-6.08,1.67-9.12,2.53-2.22.63-4.43,1.3-6.66,1.94l-9.59,2.71c-.28.08-.56.15-.83.24a.58.58,0,0,0-.48.63,1.28,1.28,0,0,0,0,.19v15.39" transform="translate(0.02)" fill="#fff" stroke="#000" stroke-miterlimit="10" stroke-width="0.25"/>
    <path id="Path_24178" data-name="Path 24178" d="M181.91,131.25l-.13.23q-1.8,3.54-3.58,7.09c-.19.37-.36.76-.56,1.14a3.87,3.87,0,0,1-.34.55,1.33,1.33,0,0,1-.83.51,4.539,4.539,0,0,0-.63.18.6.6,0,0,1-.76-.11.39.39,0,0,0-.25-.07,1.449,1.449,0,0,0-.26.07c-.49.14-1,.29-1.48.41a1.1,1.1,0,0,1-1.24-.45c-.44-.63-.88-1.27-1.3-1.91q-1.32-2-2.62-4c-.11-.16-.2-.33-.31-.49a3.09,3.09,0,0,0-.27-.29c0,.15,0,.23,0,.31,0,1.26,0,2.53-.07,3.79l-.09,4.09v.14a.44.44,0,0,1-.5.47h-.76a5.16,5.16,0,0,0-1.34.39l-.46.19a2.27,2.27,0,0,1-1.26.21,3,3,0,0,0-.65.05v-5a4.87,4.87,0,0,0,0-.54c-.06.33-.13.65-.19,1H162v-.24a1.15,1.15,0,0,0-.07-.58c-.13-.32-.08-.44.28-.55v-2.26c0-1,.05-2.06.08-3.09v-1.82a1.14,1.14,0,0,1,1-1.31c1.11-.34,2.24-.65,3.36-1l3.13-.88h.08a.77.77,0,0,1,1,.34l2.24,3,1.46,1.92a2,2,0,0,0,.15.18l.1-.14,3.82-6.14c.15-.24.28-.49.42-.73a1.4,1.4,0,0,1,1-.73l3-.7,3.9-.94h.1c.3-.06.41,0,.41.33v2.42c-.05,3-.09,6.07-.14,9.11v1.79c0,.42-.11.56-.53.66l-3.6.91-.49.13c-.43.12-.57,0-.58-.43v-6.54a2.515,2.515,0,0,0-.05-.61H182" transform="translate(0.02)" fill="#fff" stroke="#000" stroke-miterlimit="10" stroke-width="0.25"/>
    <path id="Path_24179" data-name="Path 24179" d="M88.82,162.82v-2.44c.13.12.13.12.17.58a3.359,3.359,0,0,0,.11.62.64.64,0,0,0,.06-.18,5.621,5.621,0,0,0,0-.71,35.891,35.891,0,0,1,0-3.74c.07-1.41.17-2.83.2-4.25v-3.71a2.439,2.439,0,0,1,0-.27.61.61,0,0,1,.52-.67c.39-.11.79-.22,1.2-.31,1.09-.23,2.18-.43,3.26-.68.73-.17,1.44-.41,2.17-.6,1-.27,1.95-.54,2.93-.79,1.26-.31,2.53-.59,3.78-.92.64-.17,1.25-.43,1.88-.63a5,5,0,0,1,3.5.09,2.84,2.84,0,0,1,1.9,2.79,4.49,4.49,0,0,1-.84,2.5,6.37,6.37,0,0,1-1.74,1.73l-.27.18.22.13c.25.16.52.31.76.48a2.84,2.84,0,0,1,1.24,2.4c0,.34-.05.69-.07,1a5.285,5.285,0,0,0,0,.57,1,1,0,0,0,.19.58l.1.13c.21.29.16.45-.19.55s-.62.14-.92.21l-4.24,1a1.7,1.7,0,0,1-2.14-1.42c-.1-.61-.15-1.22-.22-1.83a.41.41,0,0,0,0-.11c-.07-.46-.3-.66-.76-.61a9.166,9.166,0,0,0-1,.18l-5,1.27-.23.07a.42.42,0,0,0-.3.4,2.091,2.091,0,0,0,0,.25q0,1.83,0,3.66v.35a.46.46,0,0,1-.37.5l-1.2.34-4.28,1.2a3.087,3.087,0,0,0-.46.09m6.68-11.58v.45a.43.43,0,0,0,.37.44,1.681,1.681,0,0,0,.45,0,1.6,1.6,0,0,0,.57-.07,26.223,26.223,0,0,0,3.26-.68c.89-.23,1.78-.46,2.66-.71a1.48,1.48,0,0,0,1-1,.9.9,0,0,0-.39-1.17,1.68,1.68,0,0,1-.4-.28.41.41,0,0,0-.55-.1,2.5,2.5,0,0,1-.89.2,3.85,3.85,0,0,0-.49.08c-.51.13-1,.26-1.54.41l-2.17.66a1.24,1.24,0,0,1-.38.05,2.58,2.58,0,0,0-1.36.27c-.33.14-.4.28-.28.61a1.69,1.69,0,0,1,.12.78" transform="translate(0.02)" fill="#fff" stroke="#000" stroke-miterlimit="10" stroke-width="0.25"/>
    <path id="Path_24180" data-name="Path 24180" d="M112.93,152.89a.362.362,0,0,0-.1-.18,3.7,3.7,0,0,1-1-1.84,4.64,4.64,0,0,1,0-1.62,7.25,7.25,0,0,1,1-2.83,6.381,6.381,0,0,1,.67-.88c.28-.33.59-.64.89-.95a16.92,16.92,0,0,1,5.48-3.91,14.559,14.559,0,0,1,2.57-1,8,8,0,0,0,1.71-.59,7.391,7.391,0,0,1,2.35-.68,19.381,19.381,0,0,1,2.52-.16,9.72,9.72,0,0,1,3.8.75,5,5,0,0,1,2.61,2.41,4.85,4.85,0,0,1,.07,4.05,10.27,10.27,0,0,1-1.7,2.72,15.16,15.16,0,0,1-3.64,3.09,23.61,23.61,0,0,1-5.42,2.51,21.22,21.22,0,0,1-6.8,1,8.29,8.29,0,0,1-3.23-.58c-.35-.15-.67-.35-1-.53a.74.74,0,0,1-.13-.12h0a.71.71,0,0,1,.49.12,1.16,1.16,0,0,0,.64.14,7.371,7.371,0,0,0-.87-.48,1.55,1.55,0,0,0-.31-.06h0a.47.47,0,0,0-.49-.44Zm14-9.38a.9.9,0,0,1,1.06.39,1.06,1.06,0,0,1,.6.39,1.61,1.61,0,0,1,.34.79,4.95,4.95,0,0,0,.06.94.779.779,0,0,0,0,.16,2.23,2.23,0,0,0,.08-1.44,2.57,2.57,0,0,0-2.56-2c-.65.05-1.3.07-2,.13a11.279,11.279,0,0,0-1.42.2,3.21,3.21,0,0,0-1.71.88,19.571,19.571,0,0,0-1.4,1.51,5.93,5.93,0,0,0-1.19,2.26,2.27,2.27,0,0,0,0,1.34,1.9,1.9,0,0,0,1.16,1.11,5.34,5.34,0,0,0,2.71.31,9,9,0,0,0,3.54-1.3,5.46,5.46,0,0,0,2.25-2.59,2.36,2.36,0,0,0,.16-1.36,2.11,2.11,0,0,0-1.53-1.69l-.23-.08" transform="translate(0.02)" fill="#fff" stroke="#000" stroke-miterlimit="10" stroke-width="0.25"/>
    <path id="Path_24181" data-name="Path 24181" d="M139.67,147.56c0,.16-.12.17-.22.11s-.23-.14-.35-.21l-.95-.57a3.79,3.79,0,0,1-1.72-2.22l-.18-.62a1.054,1.054,0,0,0-.11-.31,1.85,1.85,0,0,1,.7,1,2.88,2.88,0,0,0,.82,1.34c.16.15.3.33.44.48.13-.06.12-.13.06-.18a3.22,3.22,0,0,1-.91-1.66,5.54,5.54,0,0,1-.15-2.29,5.4,5.4,0,0,1,1.52-3.22c.39-.4.76-.83,1.16-1.22s1.06-1.06,1.63-1.54a13.541,13.541,0,0,1,3.65-2.1c.71-.29,1.44-.52,2.17-.77a9.05,9.05,0,0,0,1.56-.62,8.38,8.38,0,0,1,3.25-1,19.719,19.719,0,0,1,3.17-.05,7.4,7.4,0,0,1,3.4,1,4.83,4.83,0,0,1,2.41,4.6,4.48,4.48,0,0,1-.56,2,13.51,13.51,0,0,1-3.18,3.95,20.281,20.281,0,0,1-4.49,2.81,23.161,23.161,0,0,1-4.57,1.6,23.91,23.91,0,0,1-4.69.61,10.21,10.21,0,0,1-3.29-.48.3.3,0,0,1-.24-.29.41.41,0,0,0-.37-.4,2.83,2.83,0,0,1-1.1-.61.51.51,0,0,0-.21-.1s-.07.08-.06.09a1.22,1.22,0,0,0,.15.17s.11,0,.14.08c.15.22.4.25.61.36l.51.27m14.57-9.33a.6.6,0,0,1,0-.12,1.87,1.87,0,0,0-1.06-1.29,4.82,4.82,0,0,0-2.18-.45,10.49,10.49,0,0,0-2.77.51,3.34,3.34,0,0,0-1.45.8,14.351,14.351,0,0,0-1.93,2.19,5.06,5.06,0,0,0-.8,1.77,1.69,1.69,0,0,0,.45,1.65,2.65,2.65,0,0,0,1.64.81,8,8,0,0,0,4.51-.73,8.69,8.69,0,0,0,3.33-3,3.11,3.11,0,0,0,.41-1.72l-.21-.08-.21-.06a.33.33,0,0,1-.26-.41,1.139,1.139,0,0,1,.05-.24c.21.05.24.34.5.32" transform="translate(0.02)" fill="#fff" stroke="#000" stroke-miterlimit="10" stroke-width="0.25"/>
    <path id="Path_24182" data-name="Path 24182" d="M172.52,141.74c-.32.22-.44.22-.61,0l-2.31-3.11c-.09-.12-.16-.26-.25-.38s-.17-.21-.25-.31l-.1-.15a1,1,0,0,0,.18.09.86.86,0,0,1,.58.4c.73,1.06,1.47,2.1,2.2,3.16a.67.67,0,0,0,.56.31" transform="translate(0.02)" fill="#fff" stroke="#000" stroke-miterlimit="10" stroke-width="0.25"/>
    <path id="Path_24183" data-name="Path 24183" d="M113.47,153.59c-.22-.13-.44-.25-.65-.39a4.12,4.12,0,0,1-1.2-1.19,2.91,2.91,0,0,1-.4-1.06,1,1,0,0,1,.12-.66,1,1,0,0,0,.11.37,8.329,8.329,0,0,0,.29.84,2.4,2.4,0,0,0,.74,1c.1.08.17.21.27.3a.64.64,0,0,0,.18.1h0a.48.48,0,0,0,.49.44h0a2.327,2.327,0,0,0,0,.28Z" transform="translate(0.02)" fill="#fff" stroke="#000" stroke-miterlimit="10" stroke-width="0.25"/>
    <path id="Path_24184" data-name="Path 24184" d="M88.82,151.48a29.37,29.37,0,0,1-.16,6c0-2,.11-4,.16-6" transform="translate(0.02)" fill="#fff" stroke="#000" stroke-miterlimit="10" stroke-width="0.25"/>
    <path id="Path_24185" data-name="Path 24185" d="M111.23,149.87a4.38,4.38,0,0,1,.64-2.89,12.34,12.34,0,0,0-.64,2.89" transform="translate(0.02)" fill="#fff" stroke="#000" stroke-miterlimit="10" stroke-width="0.25"/>
    <path id="Path_24186" data-name="Path 24186" d="M137.27,140.29l-.73,2.09a4.11,4.11,0,0,1,.73-2.09" transform="translate(0.02)" fill="#fff" stroke="#000" stroke-miterlimit="10" stroke-width="0.25"/>
    <path id="Path_24187" data-name="Path 24187" d="M174.62,141.19c.12-.11.22-.29.45-.17-.12.18-.31.12-.45.17" transform="translate(0.02)" fill="#fff" stroke="#000" stroke-miterlimit="10" stroke-width="0.25"/>
    <path id="Path_24188" data-name="Path 24188" d="M172.74,141.71h-.06v-.06h.07v.06" transform="translate(0.02)" fill="#fff" stroke="#000" stroke-miterlimit="10" stroke-width="0.25"/>
    <path id="Path_24189" data-name="Path 24189" d="M108.73,123.51a1.371,1.371,0,0,0-.16.18c-.48,1-1,1.94-1.45,2.91-.89,1.8-1.79,3.59-2.68,5.38l-.21.38a1.13,1.13,0,0,1-.69.54q-.84.22-1.68.42a1.09,1.09,0,0,1-.44,0l.14-.08,1-.34.22-.11v-.06h-.16l-2.69.76c-.64.18-.87.12-1.25-.43-.62-.89-1.21-1.8-1.8-2.7-.77-1.18-1.52-2.36-2.28-3.53-.11-.17-.24-.32-.38-.52a1.251,1.251,0,0,0,0,.18c0,2.1-.07,4.19-.1,6.29v1.46a.7.7,0,0,1-.61.8l-1.52.4-2.26.55a2,2,0,0,1-.41.07c-.21,0-.3-.06-.32-.27a5.418,5.418,0,0,1,0-.57c0-2.38.07-4.75.1-7.13v-3.45c0-.68,0-1.37.06-2a.89.89,0,0,1,.73-1c2-.65,4-1.18,6-1.72.32-.08.63-.15.94-.25a.54.54,0,0,1,.68.22c.5.68,1,1.35,1.52,2l2.12,2.85c.28.38.42.37.66,0,1.24-2,2.48-4,3.71-6.08.15-.24.28-.47.42-.7a1.05,1.05,0,0,1,.71-.5l4.59-1.07,2.71-.64h.16v.45q-.06,6.11-.11,12.22v1.17a.48.48,0,0,1-.41.47l-1.81.45-2.49.65h-.16c-.18,0-.25,0-.29-.21a1.552,1.552,0,0,1,0-.22v-7.15h-.08" transform="translate(0.02)" fill="#fff" stroke="#000" stroke-miterlimit="10" stroke-width="0.25"/>
    <path id="Path_24190" data-name="Path 24190" d="M139.14,118.18l.41-.2c-.07-.16-.18-.16-.31-.14a5.58,5.58,0,0,1-2.37-.12,3.21,3.21,0,0,1-1.26-.61,2.11,2.11,0,0,1-.8-2.09,4.62,4.62,0,0,1,1.34-2.58,16.111,16.111,0,0,1,3.46-2.68,15,15,0,0,1,2.51-1.15c.42-.15.83-.36,1.26-.49.63-.2,1.28-.38,1.93-.52.9-.2,1.8-.38,2.71-.52a20.73,20.73,0,0,1,4.52-.19,4.14,4.14,0,0,1,2.55,1,2.88,2.88,0,0,1,.94,1.43v.08a.28.28,0,0,1,0,.08l-.34.11c-.7.17-1.41.33-2.11.51l-2.67.71a5.4,5.4,0,0,1-.82.15,1,1,0,0,1-.85-.39l-.1-.14a.76.76,0,0,0-.85-.37c-.49.06-1,.08-1.48.14a8.93,8.93,0,0,0-3.48,1.21,2.48,2.48,0,0,0-.36.28.51.51,0,0,0-.13.6.52.52,0,0,0,.5.35,3.171,3.171,0,0,0,.61-.07c.75-.17,1.49-.37,2.24-.54l4.19-.87a6.25,6.25,0,0,1,3.75.35,3,3,0,0,1,1.77,1.79,3.17,3.17,0,0,1,0,1.95,6.13,6.13,0,0,1-1.32,2.31,13.42,13.42,0,0,1-3,2.41,18.43,18.43,0,0,1-5.3,2.16A40.791,40.791,0,0,1,142,123a16.84,16.84,0,0,1-3.25.18,5.41,5.41,0,0,1-3.3-1.4,2.15,2.15,0,0,1-.56-.8.56.56,0,0,1,.28-.81,4.111,4.111,0,0,1,.74-.27l5.07-1.29a3.631,3.631,0,0,1,.45-.1.44.44,0,0,1,.5.25l.08.16a1.34,1.34,0,0,0,1.13.74,4.921,4.921,0,0,0,1.48-.13,8.19,8.19,0,0,0,2.91-1.33,1.73,1.73,0,0,0,.41-.4.66.66,0,0,0-.48-1,2.14,2.14,0,0,0-.62,0c-1.28.26-2.56.55-3.84.82l-2.7.56a1.38,1.38,0,0,0-.29.08.89.89,0,0,1-.56,0,1.791,1.791,0,0,0-.24,0h0" transform="translate(0.02)" fill="#fff" stroke="#000" stroke-miterlimit="10" stroke-width="0.25"/>
    <path id="Path_24191" data-name="Path 24191" d="M171.8,110c-.28.06-.54.11-.8.18l-4.61,1.12-2.42.59c-.45.12-.54.23-.54.7v4.55c0,.33-.1.44-.41.52l-1.39.35-4.2,1.08h-.15a1.1,1.1,0,0,1,0-.16c.06-3-.06-5.91-.08-8.86v-4.88a.58.58,0,0,1,.05-.28,2.84,2.84,0,0,0,.1.49,1,1,0,0,1,.9-.79c1-.24,2-.51,2.94-.75.64-.15,1.29-.27,1.94-.4h.16c.2,0,.3.09.3.29a1.1,1.1,0,0,1-.05.43,11.55,11.55,0,0,0,0,2v1.6a1.2,1.2,0,0,0,0,.19c0,.16.08.21.23.2a.86.86,0,0,0,.23-.06c.6-.17,1.2-.37,1.8-.52s1.32-.31,2-.43a20.313,20.313,0,0,0,2.08-.49,9.8,9.8,0,0,1,1.77-.38c.45,0,.59-.23.59-.69v-2.79a5.766,5.766,0,0,1,.06-1,.94.94,0,0,1,.81-.92c.28-.06.57-.08.86-.13a6.47,6.47,0,0,0,1.83-.56,3.07,3.07,0,0,1,1.15-.27,6.284,6.284,0,0,0,1.06-.06.36.36,0,0,1,.39.22,1,1,0,0,1,.08.31,24.808,24.808,0,0,1,.13,3.11c0,3.23,0,6.45-.06,9.68v.51a.55.55,0,0,1-.51.62l-1.2.25c-.84.17-1.68.33-2.52.51l-1.93.41h-.05c-.43.08-.49,0-.48-.42v-4.86a1.679,1.679,0,0,0,0-.2" transform="translate(0.02)" fill="#fff" stroke="#000" stroke-miterlimit="10" stroke-width="0.25"/>
    <path id="Path_24192" data-name="Path 24192" d="M122.45,127.66c0-.2.15-.22.26-.25l.61-.21a.23.23,0,0,0,.13-.14.575.575,0,0,0-.31.06l-6.22,1.69a6.913,6.913,0,0,1-.76.17c-.34.06-.5-.07-.54-.41a7.765,7.765,0,0,1,0-.84l.2-8.62c0-1.09,0-2.18.07-3.28v-.16a1.07,1.07,0,0,1,1-1.1c.48-.1,1-.16,1.46-.25a13.76,13.76,0,0,0,3-.82A7.18,7.18,0,0,1,123,113a18.883,18.883,0,0,0,2-.44l7.59-1.94a4.8,4.8,0,0,1,.66-.12c.39,0,.57.1.59.49a13.856,13.856,0,0,0,.08,1.82v.84c0,.28,0,.47-.44.57l-2.74.73-7.05,1.87-1.26.31c-.36.08-.45.19-.43.56a.811.811,0,0,0,0,.16c0,.28.15.33.42.27l1.51-.32,3-.64,3.62-.83,1.39-.34h.34v2.76a1.229,1.229,0,0,1,0,.27.39.39,0,0,1-.3.35l-.44.11-5.89,1.46-3.17.75a2.7,2.7,0,0,0-.48.16.66.66,0,0,0-.42.59,8.348,8.348,0,0,0,0,1c0,.23.11.28.34.25a3.632,3.632,0,0,0,.45-.1l7-1.79,3.38-.89.48-.11c.25,0,.35,0,.38.29a2.528,2.528,0,0,1,0,.28v2.92a.41.41,0,0,1-.31.43l-.68.19-9.27,2.55-.57.17a1.42,1.42,0,0,1-.31,0" transform="translate(0.02)" fill="#fff" stroke="#000" stroke-miterlimit="10" stroke-width="0.25"/>
    <path id="Path_24193" data-name="Path 24193" d="M134.92,113.29c-.12.47-.24.86-.32,1.27a3,3,0,0,0,0,1.39,2.08,2.08,0,0,0,.7,1.16c.28.23.59.42.89.62a2.462,2.462,0,0,0,.3.17h-.16a2.858,2.858,0,0,1-.42-.1,2.61,2.61,0,0,1-1.74-2.36,3.66,3.66,0,0,1,.34-1.66,1.68,1.68,0,0,1,.4-.53" transform="translate(0.02)" fill="#fff" stroke="#000" stroke-miterlimit="10" stroke-width="0.25"/>
    <path id="Path_24194" data-name="Path 24194" d="M99,133.89l-.14.11H98.8a37.2,37.2,0,0,1-2.49-3.38l-.29-.52c-.07-.12,0-.19.12-.24l2.86,4" transform="translate(0.02)" fill="#fff" stroke="#000" stroke-miterlimit="10" stroke-width="0.25"/>
    <path id="Path_24195" data-name="Path 24195" d="M137.94,110.14c-.15.31-.18.33-.55.29a.62.62,0,0,1-.07.19,1.07,1.07,0,0,1-.25.31c-.07.06-.21,0-.3.1a1.44,1.44,0,0,0-.23.25c-.06-.21.08-.28.17-.33a1.56,1.56,0,0,0,.62-.52.22.22,0,0,1,.13-.08.67.67,0,0,0,.42-.31.059.059,0,0,1,.06-.06.53.53,0,0,0,.36-.2,1.829,1.829,0,0,1,.39-.21c.28-.17.58-.31.86-.47a.66.66,0,0,1,.26-.06,1,1,0,0,1-.61.4.13.13,0,0,0-.09,0c0,.13-.14.14-.24.19a5.51,5.51,0,0,0-.61.37.41.41,0,0,1-.32.1" transform="translate(0.02)" fill="#fff" stroke="#000" stroke-miterlimit="10" stroke-width="0.25"/>
    <path id="Path_24196" data-name="Path 24196" d="M115.16,126.87a.61.61,0,0,1,0,.13v2.11a.36.36,0,0,0,.13.34.13.13,0,0,1,0,.21.18.18,0,0,1-.26.06.32.32,0,0,1-.16-.34,6.076,6.076,0,0,1,.07-1.13c.07-.37,0-.8.07-1.19v-.19h0" transform="translate(0.02)" fill="#fff" stroke="#000" stroke-miterlimit="10" stroke-width="0.25"/>
    <path id="Path_24197" data-name="Path 24197" d="M164.07,102.76v2.43h-.12v-1.82a.66.66,0,0,0,0-.14c0-.22-.08-.27-.3-.26h-.18c.17-.27.42-.09.62-.21" transform="translate(0.02)" fill="#fff" stroke="#000" stroke-miterlimit="10" stroke-width="0.25"/>
    <path id="Path_24198" data-name="Path 24198" d="M95.35,128.82c-.71-.35-.81-.48-.67-.9a3.84,3.84,0,0,1,.67.9" transform="translate(0.02)" fill="#fff" stroke="#000" stroke-miterlimit="10" stroke-width="0.25"/>
    <path id="Path_24199" data-name="Path 24199" d="M115.18,123a13.521,13.521,0,0,1,0,1.91,15.233,15.233,0,0,1,0-1.91" transform="translate(0.02)" fill="#fff" stroke="#000" stroke-miterlimit="10" stroke-width="0.25"/>
    <path id="Path_24200" data-name="Path 24200" d="M95.75,129.35c-.27.06-.29,0-.24-.2l.24.2" transform="translate(0.02)" fill="#fff" stroke="#000" stroke-miterlimit="10" stroke-width="0.25"/>
    <path id="Path_24201" data-name="Path 24201" d="M122,127.72c.08-.13.17-.16.29-.1a.13.13,0,0,1,0,.09c-.09.09-.19.07-.31,0" transform="translate(0.02)" fill="#fff" stroke="#000" stroke-miterlimit="10" stroke-width="0.25"/>
    <path id="Path_24202" data-name="Path 24202" d="M140.23,108.91c0-.12,0-.17.12-.15s.15,0,.21-.1c0,.21-.21.18-.33.24Z" transform="translate(0.02)" fill="#fff" stroke="#000" stroke-miterlimit="10" stroke-width="0.25"/>
    <path id="Path_24203" data-name="Path 24203" d="M99.46,134l-.3.07c.13-.21.13-.21.3-.07" transform="translate(0.02)" fill="#fff" stroke="#000" stroke-miterlimit="10" stroke-width="0.25"/>
    <path id="Path_24204" data-name="Path 24204" d="M140.23,108.9l-.32.13c.08-.2.21-.13.32-.12h0" transform="translate(0.02)" fill="#fff" stroke="#000" stroke-miterlimit="10" stroke-width="0.25"/>
    <path id="Path_24205" data-name="Path 24205" d="M99.89,133.83h-.14v-.05h.14a.17.17,0,0,1,0,.07" transform="translate(0.02)" fill="#fff" stroke="#000" stroke-miterlimit="10" stroke-width="0.25"/>
    <path id="Path_24206" data-name="Path 24206" d="M111.14,104q-.09-6.87-.17-13.67c.26.37.17.84.37,1.3a2,2,0,0,0,.06-.34v-1a.64.64,0,0,1,.51-.68c.4-.12.82-.2,1.23-.32l1.68-.53a.58.58,0,0,0,.19-.1,22.832,22.832,0,0,0-2.69.53.909.909,0,0,1,.16-.11c.5-.2,1-.41,1.51-.6.3-.1.61-.18.91-.27a.32.32,0,0,1,.4.12.69.69,0,0,0,.82.26l.73-.2c.49-.11.61,0,.6.52v3.52c0,.53.16.65.65.48a18.339,18.339,0,0,1,2.19-.52c1.09-.22,2.16-.5,3.24-.78.62-.16,1.24-.3,1.87-.43s.74-.27.74-.91V86.55h0c0-.5.14-.59.63-.59a2.94,2.94,0,0,0,.58-.1c.16,0,.27-.17.45-.18a3.669,3.669,0,0,0,.52-.14c.16-.05.33-.08.5-.12s.33-.09.5-.12a13.831,13.831,0,0,0,2-.57l.24-.07a.58.58,0,0,1,.71.39,2.26,2.26,0,0,1,.09.58c.17,3.23.15,6.47.12,9.71v3.09a.57.57,0,0,1,0,.13c0,.42-.14.57-.54.65l-4.24.86-1.52.31c-.35.07-.43,0-.43-.36V99.5c0-1.26.08-2.53.11-3.79a3.229,3.229,0,0,0,0-.44c0-.26-.13-.35-.39-.32l-.34.08-4.55,1.13-2.53.58-.21.07a.56.56,0,0,0-.45.62c0,.62,0,1.23,0,1.84v2.74c0,.37-.08.47-.44.56l-2.16.54-3.28.85-.29.06" transform="translate(0.02)" fill="#fff" stroke="#000" stroke-miterlimit="10" stroke-width="0.25"/>
    <path id="Path_24207" data-name="Path 24207" d="M149.9,85.34v2.63a1.618,1.618,0,0,1,0,.22.58.58,0,0,1-.44.58l-1.13.29-4.63,1.13-3.58.87-.52.14a.46.46,0,0,0-.36.45,9.853,9.853,0,0,0,0,1.09.27.27,0,0,0,.31.27A1.83,1.83,0,0,0,140,93l5.7-1.46,5.27-1.35.35-.09v3.54c0,.34-.07.43-.37.51l-3.49,1-7,1.92c-.39.1-.78.16-1.16.25a.14.14,0,0,1,0-.06l1.11-.43a.45.45,0,0,0-.42,0l-4,1.07-2,.53a1.05,1.05,0,0,1-.24.06c-.3,0-.44-.06-.44-.38a3.215,3.215,0,0,1,.05-.73c.12-1.25.1-2.51.11-3.77s.06-2.53.08-3.79V87.7c0-.87,0-1.75.06-2.63,0-.61.11-.73.7-.93a13.229,13.229,0,0,1,2.13-.52c1.28-.22,2.52-.56,3.77-.88l8.24-2.12,2.23-.56c.62-.16.9,0,.92.68s.05,1.55.07,2.33c0,.41-.11.58-.51.69l-1.63.43-9,2.38-.34.07c-.26,0-.33.11-.37.35-.1.52,0,.66.55.58s1.25-.24,1.88-.37l3.57-.79,3.51-.82.7-.15" transform="translate(0.02)" fill="#fff" stroke="#000" stroke-miterlimit="10" stroke-width="0.25"/>
    <path id="Path_24208" data-name="Path 24208" d="M100.6,106.61a.4.4,0,0,0-.11,0l-3.59,1-.46.14c-.29.07-.41,0-.36-.32a22.181,22.181,0,0,0,.23-3.64c0-1.84,0-3.67.12-5.51h0c0-.38-.09-.45-.44-.3a12.36,12.36,0,0,1-2.68.73,7,7,0,0,0-.79.18,17.339,17.339,0,0,1-2.35.53,4.441,4.441,0,0,0-.52.15c-.21.06-.29,0-.3-.21s0-.39,0-.59V95.71a.79.79,0,0,1,.55-.75c.23-.09.46-.17.7-.24q3.43-1.11,7-1.93,2-.47,4-.9c1.21-.26,2.42-.48,3.63-.73,1.52-.32,3-.65,4.54-1.07l.3-.07a2.15,2.15,0,0,1,0,.23v3.87c0,.32-.08.42-.36.49l-4.33,1.09-1.85.44h-.13a.72.72,0,0,0-.62.8v1.9c0,2,.07,3.92.11,5.88v1a.59.59,0,0,1-.52.71l-1.22.34-.2.08c-.24.09-.28.07-.35-.17a1,1,0,0,0,0-.14" transform="translate(0.02)" fill="#fff" stroke="#000" stroke-miterlimit="10" stroke-width="0.25"/>
    <path id="Path_24209" data-name="Path 24209" d="M99.1,107.42l-1.3.45-1.51.5-.24.06a.35.35,0,0,1-.44-.25,1.27,1.27,0,0,1,0-.43c0-.6,0-1.21.06-1.81,0-1.37.08-2.73.11-4.09a.37.37,0,0,1,0-.17,2.48,2.48,0,0,1,0,.27c0,1.82.08,3.65-.06,5.47a2.67,2.67,0,0,0,0,.4c0,.24.1.31.33.27s.44-.1.66-.15l2.36-.57" transform="translate(0.02)" fill="#fff" stroke="#000" stroke-miterlimit="10" stroke-width="0.25"/>
    <path id="Path_24210" data-name="Path 24210" d="M117.54,87.7l.48-.1v4.01a3.29,3.29,0,0,1,0,.81.38.38,0,0,1-.08-.32q0-1.815,0-3.63v-.19c0-.34-.05-.41-.36-.58" transform="translate(0.02)" fill="#fff" stroke="#000" stroke-miterlimit="10" stroke-width="0.25"/>
    <path id="Path_24211" data-name="Path 24211" d="M137.28,97.78a8.08,8.08,0,0,1-2.91.86,9.86,9.86,0,0,1,2.91-.86" transform="translate(0.02)" fill="#fff" stroke="#000" stroke-miterlimit="10" stroke-width="0.25"/>
    <path id="Path_24212" data-name="Path 24212" d="M99.88,107.07a.88.88,0,0,1,.2-.12h.1c.03,0,0,.08-.05.1s-.15.11-.25,0" transform="translate(0.02)" fill="#fff" stroke="#000" stroke-miterlimit="10" stroke-width="0.25"/>
    <path id="Path_24213" data-name="Path 24213" d="M99.52,107.23c.07-.07.11-.16.25-.09-.06.1-.11.16-.25.09" transform="translate(0.02)" fill="#fff" stroke="#000" stroke-miterlimit="10" stroke-width="0.25"/>
  </g>
</svg>
