<svg xmlns="http://www.w3.org/2000/svg" width="710.619" height="95.978" viewBox="0 0 710.619 95.978">
  <g id="Group_749" data-name="Group 749" transform="translate(-1312.575 -118.364)">
    <path id="Path_48208" data-name="Path 48208" d="M1338.84,121.46Z" transform="translate(120.514 6.085)" fill="#2e2e2e" fill-rule="evenodd"/>
    <path id="Path_48209" data-name="Path 48209" d="M1339.64,121.45Z" transform="translate(124.182 6.066)" fill="#2e2e2e" fill-rule="evenodd"/>
    <path id="Path_48210" data-name="Path 48210" d="M1341.83,121.47Z" transform="translate(134.221 6.105)" fill="#2e2e2e" fill-rule="evenodd"/>
    <path id="Path_48211" data-name="Path 48211" d="M1350.15,121.57Z" transform="translate(138.968 6.301)" fill="#2e2e2e" fill-rule="evenodd"/>
    <path id="Path_48212" data-name="Path 48212" d="M1341.3,121.45h0Z" transform="translate(131.843 6.066)" fill="#2e2e2e" fill-rule="evenodd"/>
    <path id="Path_48213" data-name="Path 48213" d="M1351.47,121.57h0Z" transform="translate(144.128 6.301)" fill="#2e2e2e" fill-rule="evenodd"/>
    <path id="Path_48214" data-name="Path 48214" d="M1346.81,121.48Z" transform="translate(126.624 6.125)" fill="#2e2e2e" fill-rule="evenodd"/>
    <path id="Path_48215" data-name="Path 48215" d="M1355,121.59Z" transform="translate(156.893 6.341)" fill="#2e2e2e" fill-rule="evenodd"/>
    <path id="Path_48216" data-name="Path 48216" d="M1348,121.49Z" transform="translate(131.022 6.144)" fill="#2e2e2e" fill-rule="evenodd"/>
    <path id="Path_48217" data-name="Path 48217" d="M1349.29,121.46Z" transform="translate(135.789 6.085)" fill="#2e2e2e" fill-rule="evenodd"/>
    <path id="Path_48218" data-name="Path 48218" d="M1362.89,121.63Z" transform="translate(186.054 6.419)" fill="#2e2e2e" fill-rule="evenodd"/>
    <path id="Path_48219" data-name="Path 48219" d="M1352.13,121.46Z" transform="translate(146.286 6.085)" fill="#2e2e2e" fill-rule="evenodd"/>
    <path id="Path_48220" data-name="Path 48220" d="M1361.809,121.559h1.512C1362.817,121.559,1361.453,121.529,1361.809,121.559Z" transform="translate(182.14 6.253)" fill="#2e2e2e" fill-rule="evenodd"/>
    <path id="Path_48221" data-name="Path 48221" d="M1356.825,121.45h-2.135A18.57,18.57,0,0,0,1356.825,121.45Z" transform="translate(156.096 6.066)" fill="#2e2e2e" fill-rule="evenodd"/>
    <path id="Path_48222" data-name="Path 48222" d="M1358.7,121.46Z" transform="translate(170.568 6.085)" fill="#2e2e2e" fill-rule="evenodd"/>
    <path id="Path_48223" data-name="Path 48223" d="M1369.036,121.61h0Z" transform="translate(209.066 6.38)" fill="#2e2e2e" fill-rule="evenodd"/>
    <path id="Path_48224" data-name="Path 48224" d="M1371.291,121.58h0Z" transform="translate(208.967 6.321)" fill="#2e2e2e" fill-rule="evenodd"/>
    <path id="Path_48225" data-name="Path 48225" d="M1375,121.67Z" transform="translate(230.811 6.498)" fill="#2e2e2e" fill-rule="evenodd"/>
    <path id="Path_48226" data-name="Path 48226" d="M1356.59,121.26h0Z" transform="translate(163.137 5.692)" fill="#2e2e2e" fill-rule="evenodd"/>
    <path id="Path_48227" data-name="Path 48227" d="M1359,121.442h2.195A9.638,9.638,0,0,0,1359,121.442Z" transform="translate(172.072 5.926)" fill="#2e2e2e" fill-rule="evenodd"/>
    <path id="Path_48228" data-name="Path 48228" d="M1358.57,121.4a1.78,1.78,0,0,0,.564,0h6.673c1.275,0,.534,0,1.246-.178a19.4,19.4,0,0,0-1.987,0h-1.334a21.267,21.267,0,0,1-2.64,0h-1.9C1357.917,121.346,1359.845,121.375,1358.57,121.4Z" transform="translate(171.621 5.577)" fill="#2e2e2e" fill-rule="evenodd"/>
    <path id="Path_48229" data-name="Path 48229" d="M1374.25,121.6h.089Z" transform="translate(228.421 6.36)" fill="#2e2e2e" fill-rule="evenodd"/>
    <path id="Path_48230" data-name="Path 48230" d="M1352.35,120.87a22.051,22.051,0,0,0,2.788,0Z" transform="translate(147.529 4.925)" fill="#2e2e2e" fill-rule="evenodd"/>
    <path id="Path_48231" data-name="Path 48231" d="M1352.29,120.866a10.2,10.2,0,0,0,1.928,0A13.934,13.934,0,0,0,1352.29,120.866Z" transform="translate(147.174 4.84)" fill="#2e2e2e" fill-rule="evenodd"/>
    <path id="Path_48232" data-name="Path 48232" d="M1354.006,120.873a3.766,3.766,0,0,0,.919,0h-1.394C1353.146,120.813,1353.472,120.843,1354.006,120.873Z" transform="translate(151.091 4.863)" fill="#2e2e2e" fill-rule="evenodd"/>
    <path id="Path_48233" data-name="Path 48233" d="M1375.406,121.6h0Z" transform="translate(233.037 6.36)" fill="#2e2e2e" fill-rule="evenodd"/>
    <path id="Path_48234" data-name="Path 48234" d="M1350.37,120.778a27.716,27.716,0,0,0,3.737-.208C1352.861,120.629,1351.675,120.659,1350.37,120.778Z" transform="translate(140.33 4.336)" fill="#2e2e2e" fill-rule="evenodd"/>
    <path id="Path_48235" data-name="Path 48235" d="M1380.462,121.61h-2.195C1378.119,121.61,1379.483,121.64,1380.462,121.61Z" transform="translate(243.407 6.38)" fill="#2e2e2e" fill-rule="evenodd"/>
    <path id="Path_48236" data-name="Path 48236" d="M1359.22,120.92h2.61a26.011,26.011,0,0,1-2.609,0Z" transform="translate(173.032 5.024)" fill="#2e2e2e" fill-rule="evenodd"/>
    <path id="Path_48237" data-name="Path 48237" d="M1365.56,121.335a20.764,20.764,0,0,0,3.915,0c-.564,0-.267,0,0,0C1368.288,121.157,1366.865,121.394,1365.56,121.335Z" transform="translate(196.729 5.706)" fill="#2e2e2e" fill-rule="evenodd"/>
    <path id="Path_48238" data-name="Path 48238" d="M1355.34,120.676a31.911,31.911,0,0,0,3.351,0C1357.534,120.676,1356.5,120.587,1355.34,120.676Z" transform="translate(158.707 4.467)" fill="#2e2e2e" fill-rule="evenodd"/>
    <path id="Path_48239" data-name="Path 48239" d="M1380.75,121.629h5.932C1384.042,121.629,1382.885,121.6,1380.75,121.629Z" transform="translate(253.643 6.391)" fill="#2e2e2e" fill-rule="evenodd"/>
    <path id="Path_48240" data-name="Path 48240" d="M1363.37,120.91a15.981,15.981,0,0,0,2.017,0h-2.017Z" transform="translate(188.225 5.004)" fill="#2e2e2e" fill-rule="evenodd"/>
    <path id="Path_48241" data-name="Path 48241" d="M1383.062,121.62h0Z" transform="translate(260.82 6.4)" fill="#2e2e2e" fill-rule="evenodd"/>
    <path id="Path_48242" data-name="Path 48242" d="M1384.07,121.63h0Z" transform="translate(265.322 6.419)" fill="#2e2e2e" fill-rule="evenodd"/>
    <path id="Path_48243" data-name="Path 48243" d="M1363.85,120.778c1.3,0,3.173,0,2.076-.178A4.335,4.335,0,0,0,1363.85,120.778Z" transform="translate(190.08 4.276)" fill="#2e2e2e" fill-rule="evenodd"/>
    <path id="Path_48244" data-name="Path 48244" d="M1387.29,121.63h0Z" transform="translate(278.027 6.419)" fill="#2e2e2e" fill-rule="evenodd"/>
    <path id="Path_48245" data-name="Path 48245" d="M1378.26,121.44Z" transform="translate(242.86 6.046)" fill="#2e2e2e" fill-rule="evenodd"/>
    <path id="Path_48246" data-name="Path 48246" d="M1372.43,120.922a8.69,8.69,0,0,1,1.068,0h.356A7.8,7.8,0,0,0,1372.43,120.922Z" transform="translate(221.643 4.963)" fill="#2e2e2e" fill-rule="evenodd"/>
    <path id="Path_48247" data-name="Path 48247" d="M1381.09,121.07a30.9,30.9,0,0,0,3.678,0C1383.582,121.07,1381.416,120.833,1381.09,121.07Z" transform="translate(254.299 5.111)" fill="#2e2e2e" fill-rule="evenodd"/>
    <path id="Path_48248" data-name="Path 48248" d="M1375.66,120.015h1.453A11.867,11.867,0,0,0,1375.66,120.015Z" transform="translate(233.753 3.2)" fill="#2e2e2e" fill-rule="evenodd"/>
    <path id="Path_48249" data-name="Path 48249" d="M1371,119.838a27.757,27.757,0,0,0,3.44-.208Q1372.716,119.648,1371,119.838Z" transform="translate(216.809 2.488)" fill="#2e2e2e" fill-rule="evenodd"/>
    <path id="Path_48250" data-name="Path 48250" d="M1390.8,121.295h1.661A6.269,6.269,0,0,0,1390.8,121.295Z" transform="translate(289.729 5.657)" fill="#2e2e2e" fill-rule="evenodd"/>
    <path id="Path_48251" data-name="Path 48251" d="M1378,119.9h3.588c.534,0,0,0-.178-.178a11.537,11.537,0,0,0,1.987,0h-1.958A34.367,34.367,0,0,1,1378,119.9Z" transform="translate(243.277 2.665)" fill="#2e2e2e" fill-rule="evenodd"/>
    <path id="Path_48252" data-name="Path 48252" d="M1392.71,121.157h1.394c.5,0,0-.237-.771-.237C1392.057,121.157,1393.986,121.157,1392.71,121.157Z" transform="translate(296.761 5.024)" fill="#2e2e2e" fill-rule="evenodd"/>
    <path id="Path_48253" data-name="Path 48253" d="M1383.54,119.644a17.8,17.8,0,0,0,3.945,0C1386.179,119.614,1384.9,119.7,1383.54,119.644Z" transform="translate(263.464 2.503)" fill="#2e2e2e" fill-rule="evenodd"/>
    <path id="Path_48254" data-name="Path 48254" d="M1382.85,119.382a15.482,15.482,0,0,0,2.966,0A14.154,14.154,0,0,0,1382.85,119.382Z" transform="translate(260.633 1.846)" fill="#2e2e2e" fill-rule="evenodd"/>
    <path id="Path_48255" data-name="Path 48255" d="M1388.21,119.747a22.1,22.1,0,0,0,2.788,0A17.487,17.487,0,0,0,1388.21,119.747Z" transform="translate(280.452 2.608)" fill="#2e2e2e" fill-rule="evenodd"/>
    <path id="Path_48256" data-name="Path 48256" d="M1391.58,119.74h0Z" transform="translate(292.748 2.704)" fill="#2e2e2e" fill-rule="evenodd"/>
    <path id="Path_48257" data-name="Path 48257" d="M1393,119.753h2.195a6.407,6.407,0,0,0-2.195,0Z" transform="translate(298.022 2.543)" fill="#2e2e2e" fill-rule="evenodd"/>
    <path id="Path_48258" data-name="Path 48258" d="M1406.492,121.31h0a6.579,6.579,0,0,1,1.1,0c.682,0,.445-.237,1.483-.178s-1.513,0-.5,0C1407.708,121.013,1405.039,121.132,1406.492,121.31Z" transform="translate(346.814 5.346)" fill="#2e2e2e" fill-rule="evenodd"/>
    <path id="Path_48259" data-name="Path 48259" d="M1407.29,121.2a4.745,4.745,0,0,0,1.127,0h.5a7.919,7.919,0,0,0,1.423,0l-1.334-.178a16.829,16.829,0,0,1-1.721.178Z" transform="translate(351.276 5.22)" fill="#2e2e2e" fill-rule="evenodd"/>
    <path id="Path_48260" data-name="Path 48260" d="M1409.38,121.361a11.866,11.866,0,0,0,2.284,0A8.483,8.483,0,0,0,1409.38,121.361Z" transform="translate(358.734 5.739)" fill="#2e2e2e" fill-rule="evenodd"/>
    <path id="Path_48261" data-name="Path 48261" d="M1398.246,119.947c1.187,0,1.157-.208.652-.267C1397.5,119.71,1398.483,119.858,1398.246,119.947Z" transform="translate(316.665 2.586)" fill="#2e2e2e" fill-rule="evenodd"/>
    <path id="Path_48262" data-name="Path 48262" d="M1397.46,119.757a20.763,20.763,0,0,0,4.271-.148,34.661,34.661,0,0,0-4.271.148Z" transform="translate(315.233 2.421)" fill="#2e2e2e" fill-rule="evenodd"/>
    <path id="Path_48263" data-name="Path 48263" d="M1398.83,119.781h.178C1398.652,119.692,1399.334,119.751,1398.83,119.781Z" transform="translate(319.877 2.693)" fill="#2e2e2e" fill-rule="evenodd"/>
    <path id="Path_48264" data-name="Path 48264" d="M1400.37,120.146c2.461,0,2.966,0,1.512-.326a3.887,3.887,0,0,0-1.512.326Z" transform="translate(325.366 2.861)" fill="#2e2e2e" fill-rule="evenodd"/>
    <path id="Path_48265" data-name="Path 48265" d="M1412.23,121.341a12.72,12.72,0,0,0,2.966,0,17.787,17.787,0,0,0-2.965,0Z" transform="translate(369.557 5.73)" fill="#2e2e2e" fill-rule="evenodd"/>
    <path id="Path_48266" data-name="Path 48266" d="M1417.271,121.641c2.7-.148,4.953,0,6.583-.267h-5.635C1416.352,121.2,1416.2,121.523,1417.271,121.641Z" transform="translate(387.537 5.815)" fill="#2e2e2e" fill-rule="evenodd"/>
    <path id="Path_48267" data-name="Path 48267" d="M1406.146,119.941c1.423,0,.593-.267,1.453-.178C1407.778,119.526,1405.672,119.882,1406.146,119.941Z" transform="translate(346.222 2.592)" fill="#2e2e2e" fill-rule="evenodd"/>
    <path id="Path_48268" data-name="Path 48268" d="M1406.58,119.766a10.914,10.914,0,0,0,2.581,0,15.311,15.311,0,0,0-2.581,0Z" transform="translate(348.469 2.648)" fill="#2e2e2e" fill-rule="evenodd"/>
    <path id="Path_48269" data-name="Path 48269" d="M1421.22,121.488h1.068c.563,0,.3,0,.919-.178A14.147,14.147,0,0,1,1421.22,121.488Z" transform="translate(402.472 5.79)" fill="#2e2e2e" fill-rule="evenodd"/>
    <path id="Path_48270" data-name="Path 48270" d="M1413.457,120.178c.445,0-.237-.178.919-.267C1413.072,119.882,1411.411,120.178,1413.457,120.178Z" transform="translate(370.12 3.037)" fill="#2e2e2e" fill-rule="evenodd"/>
    <path id="Path_48271" data-name="Path 48271" d="M1426.3,118.918a4.418,4.418,0,0,0,2.61-.208C1428.05,118.71,1427.19,118.829,1426.3,118.918Z" transform="translate(421.562 0.679)" fill="#2e2e2e" fill-rule="evenodd"/>
    <path id="Path_48272" data-name="Path 48272" d="M1435.86,118.959a8.927,8.927,0,0,1,2.521,0,7.091,7.091,0,0,0-1.453.208,7,7,0,0,0,2.581-.208c-.742,0-1.008,0-1.068-.178a22.1,22.1,0,0,1,3.707,0,8.214,8.214,0,0,1-1.928,0,15.569,15.569,0,0,1-3.944,0S1437.461,118.781,1435.86,118.959Z" transform="translate(435.256 0.638)" fill="#2e2e2e" fill-rule="evenodd"/>
    <path id="Path_48273" data-name="Path 48273" d="M1439.46,118.838l1.067.148a10.741,10.741,0,0,0,1.779-.237c-.979,0-2.64.208-1.661,0a1.839,1.839,0,0,0-1.186.089Z" transform="translate(511.303 0.64)" fill="#2e2e2e" fill-rule="evenodd"/>
    <path id="Path_48274" data-name="Path 48274" d="M1441.371,119.016a9.472,9.472,0,0,1,1.81-.326h-.8a2.966,2.966,0,0,1-.86,0c0,.178.237,0-.919.208C1441.1,118.9,1440.808,118.957,1441.371,119.016Z" transform="translate(513.544 0.64)" fill="#2e2e2e" fill-rule="evenodd"/>
    <path id="Path_48275" data-name="Path 48275" d="M1442.949,118.978c.979-.178,1.869,0,2.966-.178H1442.3C1441.614,118.859,1442.593,118.77,1442.949,118.978Z" transform="translate(516.415 0.856)" fill="#2e2e2e" fill-rule="evenodd"/>
    <path id="Path_48276" data-name="Path 48276" d="M1444.465,118.71c-.831,0-1.157.208-.386.3a7.585,7.585,0,0,0,1.156,0A1.86,1.86,0,0,0,1444.465,118.71Z" transform="translate(519.526 0.679)" fill="#2e2e2e" fill-rule="evenodd"/>
    <path id="Path_48277" data-name="Path 48277" d="M1444.19,118.75c.534,0,.208,0,.771.237s.326-.208.89,0-.416,0-.771-.208Z" transform="translate(520.601 0.758)" fill="#2e2e2e" fill-rule="evenodd"/>
    <path id="Path_48278" data-name="Path 48278" d="M1444.8,118.67a6.76,6.76,0,0,0,2.758,0A21.2,21.2,0,0,0,1444.8,118.67Z" transform="translate(521.801 0.512)" fill="#2e2e2e" fill-rule="evenodd"/>
    <path id="Path_48279" data-name="Path 48279" d="M1450.665,118.97a15.539,15.539,0,0,1,2.017-.208,7,7,0,0,0-1.928,0C1450.161,118.762,1449.538,118.851,1450.665,118.97Z" transform="translate(532.098 0.627)" fill="#2e2e2e" fill-rule="evenodd"/>
    <path id="Path_48280" data-name="Path 48280" d="M1453.19,118.858a9.551,9.551,0,0,0,2.254,0l-1.067-.178Z" transform="translate(538.293 0.62)" fill="#2e2e2e" fill-rule="evenodd"/>
    <path id="Path_48281" data-name="Path 48281" d="M1455,118.994h3.352c.919,0-1.69-.208-.742-.3a1.423,1.423,0,0,0-.89,0,8.487,8.487,0,0,0-1.72.3Z" transform="translate(541.852 0.514)" fill="#2e2e2e" fill-rule="evenodd"/>
    <path id="Path_48282" data-name="Path 48282" d="M1456.3,118.747h1.987c0-.178-.831-.178-1.9-.237C1455.859,118.569,1457.075,118.658,1456.3,118.747Z" transform="translate(544.314 0.286)" fill="#2e2e2e" fill-rule="evenodd"/>
    <path id="Path_48283" data-name="Path 48283" d="M1468.13,119.125h6.792s0,.326-.178.445l-1.3,2.017-5.19,7.919-2.373,3.589-.356.5-.741,1.038c-.208.564.148.178.593-.386l.742-.919,3.232-4.716a18.343,18.343,0,0,1,1.038-1.987l1.809-2.966,1.72-2.728,1.127-1.75v-.237h-2.224l-8.1-.267h-7a.289.289,0,0,0,.237.267h3.055Z" transform="translate(547.198 0.62)" fill="#2e2e2e" fill-rule="evenodd"/>
    <path id="Path_48284" data-name="Path 48284" d="M1467.043,118.748h3.47l-1.958,2.966-3.915,5.932c-1.246,1.868-2.461,3.737-3.678,5.635l-.534.712.326-.3.267-.356,2.076-2.966,5.131-7.919,2.373-3.678s.148-.178,0-.178h-3.618Z" transform="translate(552.525 0.463)" fill="#2e2e2e" fill-rule="evenodd"/>
    <path id="Path_48285" data-name="Path 48285" d="M1460.689,124.57c-.3.326-.534.741-.86,1.068s.563-.386,0,.534a7,7,0,0,0,.86-1.453C1460.066,125.578,1460.126,125.667,1460.689,124.57Z" transform="translate(551.198 12.199)" fill="#2e2e2e" fill-rule="evenodd"/>
    <path id="Path_48286" data-name="Path 48286" d="M1459.14,126.87c-.326.326-.563.712-.86,1.068.208,0,0,.564.356,0C1458.577,127.76,1458.813,127.611,1459.14,126.87Z" transform="translate(548.299 16.72)" fill="#2e2e2e" fill-rule="evenodd"/>
    <path id="Path_48287" data-name="Path 48287" d="M1438.61,150.563a20.757,20.757,0,0,0-4.27,0c1.216,0,2.373.237,3.588.267C1438.4,150.8,1438.343,150.682,1438.61,150.563Z" transform="translate(426.815 63.078)" fill="#2e2e2e" fill-rule="evenodd"/>
    <path id="Path_48288" data-name="Path 48288" d="M1427.828,150.712a13.821,13.821,0,0,0-1.928,0C1425.426,150.772,1427.295,150.92,1427.828,150.712Z" transform="translate(419.532 63.522)" fill="#2e2e2e" fill-rule="evenodd"/>
    <path id="Path_48289" data-name="Path 48289" d="M1419.1,150.626a9.966,9.966,0,0,0-3.381,0C1416.817,150.655,1417.974,150.6,1419.1,150.626Z" transform="translate(382.663 63.134)" fill="#2e2e2e" fill-rule="evenodd"/>
    <path id="Path_48290" data-name="Path 48290" d="M1415.07,150.46a18.867,18.867,0,0,0-4.3.267,17.8,17.8,0,0,0,4.3-.267Z" transform="translate(364.658 63.092)" fill="#2e2e2e" fill-rule="evenodd"/>
    <path id="Path_48291" data-name="Path 48291" d="M1404.856,150.49h-2.966a8.243,8.243,0,0,0,2.966,0Z" transform="translate(331.222 63.151)" fill="#2e2e2e" fill-rule="evenodd"/>
    <path id="Path_48292" data-name="Path 48292" d="M1393.729,150.18a4.192,4.192,0,0,0-.949.3,11.237,11.237,0,0,0,1.72,0C1393.966,150.328,1394.292,150.269,1393.729,150.18Z" transform="translate(297.059 62.542)" fill="#2e2e2e" fill-rule="evenodd"/>
    <path id="Path_48293" data-name="Path 48293" d="M1361.26,147.8Z" transform="translate(180.029 57.863)" fill="#2e2e2e" fill-rule="evenodd"/>
    <path id="Path_48294" data-name="Path 48294" d="M1358.86,147.81Z" transform="translate(171.159 57.883)" fill="#2e2e2e" fill-rule="evenodd"/>
    <path id="Path_48295" data-name="Path 48295" d="M1378.15,150.22c-.267,0-.267,0,.208.178h-4.538a50.606,50.606,0,0,0,5.635,0,8.9,8.9,0,0,1-1.305-.178Z" transform="translate(227.798 62.621)" fill="#2e2e2e" fill-rule="evenodd"/>
    <path id="Path_48296" data-name="Path 48296" d="M1372.8,150s-1.334.208-.415.356S1373.629,150,1372.8,150Z" transform="translate(220.229 62.188)" fill="#2e2e2e" fill-rule="evenodd"/>
    <path id="Path_48297" data-name="Path 48297" d="M1374.4,150.378a3.791,3.791,0,0,1-.8-.208,3.44,3.44,0,0,0-1.186.237C1373.033,150.467,1373.774,150.259,1374.4,150.378Z" transform="translate(221.715 62.522)" fill="#2e2e2e" fill-rule="evenodd"/>
    <path id="Path_48298" data-name="Path 48298" d="M1351.766,150.146a7.562,7.562,0,0,0-2.046,0,16.779,16.779,0,0,0,1.72,0C1351.2,150.176,1351.588,150.176,1351.766,150.146Z" transform="translate(137.674 62.339)" fill="#2e2e2e" fill-rule="evenodd"/>
    <path id="Path_48299" data-name="Path 48299" d="M1350.109,150.266a4.746,4.746,0,0,0-1.78,0C1349.546,150.444,1350.08,150.384,1350.109,150.266Z" transform="translate(132.488 62.545)" fill="#2e2e2e" fill-rule="evenodd"/>
    <path id="Path_48300" data-name="Path 48300" d="M1353.481,150.1h-7.325c.475.148-1.038,0-2.076.178C1347.49,150.219,1349.774,150.1,1353.481,150.1Z" transform="translate(117.701 62.385)" fill="#2e2e2e" fill-rule="evenodd"/>
    <path id="Path_48301" data-name="Path 48301" d="M1346.473,150.1a27.959,27.959,0,0,0-3.143,0,15.956,15.956,0,0,0,3.143,0Z" transform="translate(114.138 62.296)" fill="#2e2e2e" fill-rule="evenodd"/>
    <path id="Path_48302" data-name="Path 48302" d="M1345.241,150.07h-3.381a15.544,15.544,0,0,0,3.381,0Z" transform="translate(122.885 62.326)" fill="#2e2e2e" fill-rule="evenodd"/>
    <path id="Path_48303" data-name="Path 48303" d="M1344.5,150.165a11.553,11.553,0,0,1-2.758-.178c-.8-.178-1.394,0-.712.267S1343.222,150.165,1344.5,150.165Z" transform="translate(129.919 62.023)" fill="#2e2e2e" fill-rule="evenodd"/>
    <path id="Path_48304" data-name="Path 48304" d="M1342.614,150.534h-2.254a10.583,10.583,0,0,0,1.364,0A8.881,8.881,0,0,1,1342.614,150.534Z" transform="translate(127.931 63.196)" fill="#2e2e2e" fill-rule="evenodd"/>
    <path id="Path_48305" data-name="Path 48305" d="M1340.791,150h-1.72c1.364,0-.682,0-.682.208a9.172,9.172,0,0,1,2.017,0C1341.029,150.356,1339.279,150,1340.791,150Z" transform="translate(43.808 62.188)" fill="#2e2e2e" fill-rule="evenodd"/>
    <path id="Path_48306" data-name="Path 48306" d="M1343.007,150.49h-5.427Q1340.249,150.534,1343.007,150.49Z" transform="translate(115.695 63.151)" fill="#2e2e2e" fill-rule="evenodd"/>
    <path id="Path_48307" data-name="Path 48307" d="M1336.621,150.138c-.92,0-.831-.178-2.165-.208.445,0,.178.178-1.246.178A32.619,32.619,0,0,0,1336.621,150.138Z" transform="translate(40.623 62.051)" fill="#2e2e2e" fill-rule="evenodd"/>
    <path id="Path_48308" data-name="Path 48308" d="M1336.294,150h-3.974A25.3,25.3,0,0,0,1336.294,150Z" transform="translate(38.874 62.188)" fill="#2e2e2e" fill-rule="evenodd"/>
    <path id="Path_48309" data-name="Path 48309" d="M1329.439,149.938c-.356,0,.712,0,.237.148,1.868,0,3.856-.148,5.665,0a51.032,51.032,0,0,0-5.9-.148Z" transform="translate(33.064 62.013)" fill="#2e2e2e" fill-rule="evenodd"/>
    <path id="Path_48310" data-name="Path 48310" d="M1335.481,150.044c-1.928-.148-3.974,0-5.931,0A49.458,49.458,0,0,0,1335.481,150.044Z" transform="translate(33.428 62.144)" fill="#2e2e2e" fill-rule="evenodd"/>
    <path id="Path_48311" data-name="Path 48311" d="M1331.966,150.158a19.341,19.341,0,0,0-2.966,0C1329.919,150.247,1330.927,150.1,1331.966,150.158Z" transform="translate(32.347 62.386)" fill="#2e2e2e" fill-rule="evenodd"/>
    <path id="Path_48312" data-name="Path 48312" d="M1332.814,150.112a37.08,37.08,0,0,0-4.834,0C1329.641,149.934,1331.154,150.2,1332.814,150.112Z" transform="translate(30.342 62.254)" fill="#2e2e2e" fill-rule="evenodd"/>
    <path id="Path_48313" data-name="Path 48313" d="M1332.472,149.971c1.631.178-.415.208-1.483,0s.712,0,1.483,0h-2.195a52.692,52.692,0,0,1-6.228.356,20.965,20.965,0,0,0,4.063,0s2.135,0,1.334.208l7.059-.386a26.247,26.247,0,0,0-4.033-.178Z" transform="translate(22.617 61.95)" fill="#2e2e2e" fill-rule="evenodd"/>
    <path id="Path_48314" data-name="Path 48314" d="M1326.57,149.978h-1.779A4.566,4.566,0,0,1,1326.57,149.978Z" transform="translate(20.808 61.973)" fill="#2e2e2e" fill-rule="evenodd"/>
    <path id="Path_48315" data-name="Path 48315" d="M1324.522,149.82h-1.513a14.122,14.122,0,0,0,1.512,0Z" transform="translate(19.594 61.834)" fill="#2e2e2e" fill-rule="evenodd"/>
    <path id="Path_48316" data-name="Path 48316" d="M1324.427,149.894h-2.818C1322.5,149.953,1323.508,149.864,1324.427,149.894Z" transform="translate(17.82 61.968)" fill="#2e2e2e" fill-rule="evenodd"/>
    <path id="Path_48317" data-name="Path 48317" d="M1335.811,121.44h-1.631a10.285,10.285,0,0,0,1.364,0h.267Z" transform="translate(42.53 6.046)" fill="#2e2e2e" fill-rule="evenodd"/>
    <path id="Path_48318" data-name="Path 48318" d="M1342.81,121.48Z" transform="translate(138.714 6.125)" fill="#2e2e2e" fill-rule="evenodd"/>
    <path id="Path_48319" data-name="Path 48319" d="M1465.874,127.634h73.1c-1.1.038-2.195.038-3.291,0-1.128,0,.987,0,0,0h6.91c-.845-.028-1.693-.028-2.538,0h195.132l225.218.237h36.337a4.418,4.418,0,0,0-.376.445L1988.7,135.7l-31.026,29.658-31.025,29.658-7.756,7.474-1.928,1.839c-.987.86,0,.534-1.5.623h.939c.094,0,0,.148,0,0s0,0,.847-.682l1.457-1.394a6.276,6.276,0,0,0,.564-.593l10.248-9.846,8.32-8.008c.329-.3.376-.326,0-.178l13.3-12.782.94-.89c.235-.267,0,.178-.47.415l15.653-15.036c1.458-1.364,3.385-3.233,4.7-4.478,2.21-2.076,3.431-3.292,4.936-4.716l5.876-5.635c1.081-1.068-.611.534.517-.534,0-.267,1.5-1.453.94-.89l3.949-3.826c.517-.445,0-.208,0,0,2.068-1.957,3.384-3.262,5.171-4.982a11.15,11.15,0,0,0,1.457-1.364l1.269-1.246.376-.3s.564-.415,0-.326h-143.47c-.877-.036-1.757-.036-2.634,0H1730.813c.861.03,1.725.03,2.586,0h-41.837a21.462,21.462,0,0,0-2.3,0H1541.463q-1.6-.054-3.2,0h75.777q1.245-.045,2.492,0h31.872q.587-.022,1.175,0h346.077l-.658.623-13.68,13.168-30.414,29.183-.988,1.008c-.469.415-.469.386,0,.178l-14.76,14.206-.94.89-1.975,1.928.752-.741-1.739,1.661-14.9,15.3-.329.3H1540.806c-1.08.037-2.163.037-3.243,0H1327.2v-.208l1.129-1.008,6.064-5.576,1.5-1.3c-.423.356,2.256-2.076,3.384-3.114h0l10.06-9.164c3.667-3.351,8.321-7.563,12.128-11.092l9.4-8.719,9.4-8.63a18.587,18.587,0,0,1-1.5,1.275l2.068-1.9c-1.269,1.1-1.786,1.631-2.586,2.254-1.175,1.216-3.431,2.966-3.808,3.559s-1.222.979-1.833,1.513l-4.7,4.419,4.043-3.944c-6.064,5.516-14.385,12.96-21.154,19.455-.705.652-1.363,1.246-2.068,1.809h.283l-2.3,2.106c-1.175.919-4.043,3.707-5.453,5.012-.752.652.376-.386,1.081-1.068a12.642,12.642,0,0,1-1.786,1.542c1.222-1.216,1.5-1.364,2.256-2.195-.658.445-1.128,1.186-1.786,1.6a7.007,7.007,0,0,0-.94,1.068c-.376.3-.7.623-1.034.919s.987-1.127.893-1.157l.752-.682c-.47.623,1.645-1.424,2.586-2.313.517-.415.282,0,.8-.593,2.209-2.046,2.492-2.58,4.7-4.449,0,0-1.645,1.661-2.209,2.284.893-.83,2.82-2.61,2.209-2.195,2.538-2.165,4.7-4.567,7.38-6.881-1.551,1.3-3.056,2.966-4.7,4.271a59.412,59.412,0,0,1,5.593-5.19c1.928-1.868,3.9-3.707,5.876-5.4,6.065-5.694,12.176-11.033,18.334-16.668-1.411,1.157-2.773,2.432-4.184,3.529s-2.962,2.61-4.418,3.826c-.517.445,0,.237-.517.534-1.128.86-2.257,1.957-3.385,2.966-.564.415,0-.178.752-.8-1.411,1.127-2.774,2.432-4.184,3.618s.47-.5-.282,0c-2.068,1.72-3.1,2.788-5.453,4.893a33.213,33.213,0,0,1,2.82-2.729l-1.363,1.068c0,.237,0,0,.329-.178-1.034.949-1.692,1.424-2.115,1.9q-.375.309-.8.593c-1.693,1.6-3.479,2.966-5.219,4.6-.611.593-.564.652,0,.148l-1.551,1.453a5.673,5.673,0,0,1-1.128.652c2.068-1.839,5.124-4.716,5.594-5.338,3.243-2.966,6.487-5.724,9.73-8.452-.893.593,1.551-1.453,2.868-2.61.423-.267-1.363,1.186-1.833,1.661,1.411-1.127,2.773-2.491,4.184-3.737s-.564.593.8-.593c.282-.356,3.9-3.47,5.782-5.1s3.385-2.966,5.547-4.864c0-.237-1.928,1.631-2.633,2.224,1.786-1.6,6.2-5.516,9.4-8.245,2.163-1.957,9.825-8.423,10.436-9.075l4.278-3.648s-1.034.919-.846.771l8.885-7.592c-1.034.83-2.82,2.313-2.35,1.868-2.3,1.9-6.017,4.923-6.676,5.4a33.113,33.113,0,0,0-3.29,2.966l1.081-.919c.517-.415,0,0-.847.741l-2.115,1.72c-.8.623-.517.356.282-.326-.7.564-1.363,1.127-1.363,1.157-1.692,1.335-5.5,4.567-8.133,6.762s-6.111,5.16-9.166,7.83l-.517.415c1.175-1.157,4.183-3.678,5.641-5.012l-1.6,1.275-11.846,10.113-.283.178c1.646-1.394,4.043-3.47,4.7-4.241l-2.162,1.75c.376-.208-.376.386-1.364,1.186.282-.178.282,0,0,0a46.823,46.823,0,0,0-4.325,3.767c-.611.593-.329.178-1.316,1.068,0,0,1.034-.919.517-.564-1.128.919-1.974,1.809-1.6,1.542-.7.623-.658.415-1.363,1.008a14.133,14.133,0,0,0-1.316,1.275c-.658.623-.94.712-.517.385-1.175.89-.846.771-1.081,1.008a16.582,16.582,0,0,1-1.646,1.216c.611-.593,1.269-1.1,1.881-1.661a7.71,7.71,0,0,0-2.115,1.957,50.635,50.635,0,0,0-4.7,4.241c-1.128,1.275,0-.237-.611.3l3.2-2.788c-1.034.8-1.081.712,0-.237a9.448,9.448,0,0,0-1.317,1.186,18.089,18.089,0,0,1-1.645,1.216c-1.411,1.335-2.821,2.491-4.7,4.182a12.668,12.668,0,0,1,1.833-1.6c.282-.237,0,0,0,0l.517-.5c-1.081.83-2.115,1.809-3.2,2.729-.564.386,0-.178-.611.208s-.564.534-1.6,1.483a16.766,16.766,0,0,1-1.41.979,8.309,8.309,0,0,0-.752.771,9.168,9.168,0,0,1-1.129.771l-4.7,4.063c-.8.534.564-.564,1.27-1.246-.847.623-1.6,1.424-2.445,1.987,0,0-.517.564,0,.326-3.948,3.2-7.8,6.732-11.752,9.965,0,.237.282-.178.564-.356-.564.563-1.175,1.157-1.787,1.661a7.091,7.091,0,0,0-1.41.979l-.94.8-3.009,2.788c-2.022,1.868-4.09,3.826-6.158,5.783,3.431.148,7.38,0,10.859.148h7a12.016,12.016,0,0,1-1.551.148h-15.7l.564-.563,4.7-4.6,4.418-4.063-.893.741-1.316,1.127-2.4,2.254c-1.6,1.453-2.867,2.669-4.137,3.855l-1.6,1.424c.563.025,1.129.025,1.692,0h15c.406-.02.815-.02,1.222,0h-18.38c.283-.326.7-.712,1.034-1.038l1.551-1.483-2.773,2.521c-.282.148,0,0,.282,0h17.91a12.357,12.357,0,0,1,1.505,0l6.157-.208c1.74,0,.8,0,0,.148,1.456.061,2.917.061,4.372,0h1.975q-1.316.046-2.633,0h11c2.115,0-1.081,0,.7.208,2.044-.155,4.1-.235,6.159-.237l7.9.267c2.209-.178,4.7-.178,7.944-.267,1.974,0-1.551,0-1.081.178,3.44.026,6.88-.093,10.295-.356q-4.165-.036-8.321.208h-2.257c-3.667-.237-11.187.208-16.124-.178,3.2-.208,10.06,0,14.478,0,5.01-.189,10.033-.189,15.043,0a13.317,13.317,0,0,0-3.055.386h3.666c3.854.326,5.594,0,9.4.237h6.816c-1.175,0,.282,0-.329-.148h3.62c2.022.148-.517.178-1.88.148a36.061,36.061,0,0,0,5.453,0q2.66-.018,5.312.148c2.492,0,5.265-.208,7.709,0,1.551.178-1.175.3-2.585.445,3.243,0,4.7-.208,9.073,0a13.144,13.144,0,0,0,2.586,0H1426.9c1.222,0,2.256.178,3.479.178h2.773c-.894,0-.987.178,0,.267,6.3-.356,12.222-.267,18.333-.415h.8q4.1-.225,8.226-.178c.329.148-4.7.178-4.231.267h13.068c1.364.237-4.7,0-4.7.326a19.621,19.621,0,0,0,3.15,0c5.829.237,16.5,0,22.564,0,1.316,0-3.526,0-1.034.237a41.778,41.778,0,0,1,5.077-.237h-4.372c2.773,0,5.265.178,8.133,0,.8,0,.282,0,1.222.178h6.3c.752,0,.752,0,.329.178,1.034-.046,2.07-.046,3.1,0,.94,0,.564,0,0,0h21.906c.658,0,0,.148-.987.178h4.043c2.162,0-.893-.208,1.034-.267a48.865,48.865,0,0,0,6.252,0c1.222,0,0,.148,1.692.237.8,0,0-.178.564-.267a40.462,40.462,0,0,0,5.406,0c1.222,0,0,.148,1.645.237.376,0,.423,0-.329-.178a45.662,45.662,0,0,1,8.7.475c4.231,0-3.291-.267-.658-.445,1.009.024,2.014.094,3.009.208a50.553,50.553,0,0,0,5.547-.237,27.108,27.108,0,0,1,4.7.237h2.3c-1.551-.208-.611,0-2.209,0,1.316-.267,7.8,0,11.752-.178a5.347,5.347,0,0,1-2.4.3,60.247,60.247,0,0,0,6.864-.267,37.169,37.169,0,0,0,6.3,0,70.2,70.2,0,0,0,7.521,0c.611.178-2.351,0-3.2,0,.847.148-1.316.237-.658.356,2.539-.208,6.065-.208,8.321-.475h3.526c.893.237-5.359,0-1.975.3h-4.043c1.269.178,5.077,0,4.7.148,1.5,0,3.1,0,5.5-.178,0,.326,2.586,0,4.7.267,2.82-.208,5.453,0,8.179-.237a21.821,21.821,0,0,0-3.479-.208,39.987,39.987,0,0,1,5.876,0c.376,0-.892.267-1.5.267.283.148,1.551.148,1.6.356,0-.356,2.68,0,5.124-.326-.94-.208-2.115,0-3.056-.148a31.229,31.229,0,0,1,4.418,0h-.093c1.6,0,.658-.267,2.209,0-.423-.148-1.222-.267,0-.386,2.162,0,0,0,1.645.237s.8-.178.611-.267a19.2,19.2,0,0,0,2.256,0c2.256.208-1.5.356,0,.534.517,0,1.364-.208,1.081-.3,1.551-.178,2.868.178,4.7,0s1.081.208,2.068.326c1.94-.089,3.889-.089,5.829,0a47.4,47.4,0,0,1,6.816-.148c1.175,0-2.4.148,0,.267a68.953,68.953,0,0,1,7.193,0c1.88,0-.752-.208.611-.3,2.586,0,.376.237,2.492.356a4.676,4.676,0,0,0,1.88-.148c4.184.5,9.026-.178,13.35,0a54.41,54.41,0,0,1,5.547-.386c.8,0,1.317.178,3.057.178.422.208-2.68,0-3.667.208a48.785,48.785,0,0,0,6.769,0c2.209,0,1.128.178,2.491.356a20.883,20.883,0,0,0,3.667,0l1.692.178c-.705-.237,4.043-.3,5.782,0a22.261,22.261,0,0,1,4.984,0c1.88,0,0,0-.8-.178,1.049-.044,2.1-.044,3.15,0,1.645.208.47.208,0,.326a43.357,43.357,0,0,1,5.641.356,7.426,7.426,0,0,1-1.364,0c2.062.13,4.134.18,6.206.148-4.7-.178-3.761-.445-8.227-.564a70.17,70.17,0,0,1,7.944.237c0-.178-3.384-.385-2.866-.563a23.4,23.4,0,0,1,5.171.386q1.267-.241,2.491-.563c-.564.326,1.693.326,3.385.474.846,0-1.974.208,0,.356.846-.148,1.223-.148,1.081-.356,1.176,0,2.774.178,1.834,0,1.291.033,2.578.113,3.854.237,0,.148-4.042,0-3.243.3,2.444,0,13.256-.475,11.141,0a36.763,36.763,0,0,1,4.042,0c1.975-.415,6.629,0,10.06-.445.705.3,3.526,0,2.492.356,1.5,0,1.222-.208,3.243-.267,3.444.133,6.9.133,10.341,0a11.067,11.067,0,0,0,3.573,0q1.939.187,3.9.237c-.376-.148-1.081-.148-1.646-.356a27.364,27.364,0,0,1,4.326.3,28.152,28.152,0,0,1,4.7,0s-.47-.148.564-.208c-1.916.031-3.832-.029-5.734-.178h9.777c.283,0,0,0,.423.148-1.551,0-4.325-.148-4.7,0,2.3.148,4.418-.208,7.521,0a13.4,13.4,0,0,1,1.834,0c.423,0,.423,0-.329-.208h5.877c2.021,0,.422.208,1.645.3s-.892-.237,1.458-.208-1.129.208,1.222.237c1.269,0,0-.178.517-.237,6.769.593,15.278,0,20.825.356.752,0-1.317.178-.988.267a70.4,70.4,0,0,1,7.521,0c.376,0,.423-.148-.328-.208.919-.089,1.845-.148,2.774-.178,1.127,0,0,.148-.565.237h4c.47,0-.376,0-.8-.178q1.339-.043,2.679,0s-.611,0,.375.237l1.833-.178c1.223,0,0,.178,1.646.3h12.974L1870,213.7c1.189-.059,2.383-.059,3.572,0,1.129,0,0,0-.517.208,2.855.059,5.713,0,8.555-.178a11.6,11.6,0,0,0,3.526,0c-2.257-.208,0-.178.987-.267-4.09,0-5.735-.208-10.2,0h.847a13.961,13.961,0,0,1-2.727,0c-1.111-.183-2.242-.312-3.385-.386,5.125.237,12.317,0,15.984.178h.517c1.739,0-.471.178,1.222.237a49.2,49.2,0,0,1,8.085,0,20.087,20.087,0,0,1,4.7,0c-.706.178-2.35.356-1.128.534a24.842,24.842,0,0,0-3.667,0,8.511,8.511,0,0,1,2.585.208c.8-.208,1.975,0,2.4-.3,1.487.059,2.979.059,4.466,0a54.1,54.1,0,0,0,8.931,0c0,.148.376.208,1.081.208h8.18A25.285,25.285,0,0,0,1927.4,211c1.317-1.1,1.27-.919-1.927,2.284l3.9-3.707,1.176-1.216c.8-.83,1.551-1.661,2.4-2.4s-.8.475-.282-.208,1.269-.741,1.5-1.394.611-.326.47,0c.847-.712-.329,0,1.081-1.275.752-.534,1.081-.682.8-.267a39.628,39.628,0,0,0,3.761-3.885c.8-.563.283,0,1.269-.712-.281-.208,1.269-1.246,1.223-1.186a26.988,26.988,0,0,1,4.042-4.093,20.016,20.016,0,0,1,3.243-3.411s0,.415.517,0c.423-.949,1.927-1.868,2.867-3.292,0-.5-1.551,1.038-1.88,1.513s.893-1.216,1.269-1.542-1.175,1.038-1.551,1.335,0-.5.47-.89a11.138,11.138,0,0,0,2.492-2.313c.752-.534,1.457-1.038,1.081-.475,1.081-.712,1.693-1.779,2.867-2.462,0-.3-.375-.148.659-1.157a20.021,20.021,0,0,1-3.337,4.6l2.632-2.195a2.615,2.615,0,0,1,1.081-1.275v-.415c.988-1.127.752-.5,1.975-1.453a13.738,13.738,0,0,1,4.7-4.478c-.282-.178,1.035-1.008,1.458-1.809-.988.623-1.551,1.6-2.539,2.254a22.27,22.27,0,0,1,2.961-2.818c0-.148,0-.445.705-1.157s.706-.415,0,.148c.94-.771.659-1.038,0-.475a10.22,10.22,0,0,0-1.6,1.75c-.328.148-.423,0-.752.237.987-1.186,2.445-2.076,3.431-3.262.47,0-1.128,1.987.564.415-.564,0,0-.415.987-1.335.471,0-.658.89,1.316-.712,0-.237,0-.356.893-1.424.8-.148,1.692-1.839,3.1-2.669-2.868,2.966-4.7,5.279-8.462,8.3,1.6-.949-2.115,2.224-1.176,2.017s.847-.741,1.364-1.038a9.033,9.033,0,0,1,3.056-2.758c-1.034.5.847-1.275-.282-.623a13.458,13.458,0,0,1,1.974-1.869c.659-.385-2.021,1.869,0,.415-.282.623-1.128.83-1.41,1.483.564-.415.376,0,.987-.534a4.293,4.293,0,0,1,2.35-2.017c-.375-.3,3.009-2.966,4.7-4.627.282-.593,0,0-.987.534,1.269-1.779,4.325-4.182,4.7-5.16s0,.267.564,0c-1.316,1.275-2.539,2.58-3.949,3.767-.329.5,0,.593.375.267a3.367,3.367,0,0,1,.988-.919h0a31.334,31.334,0,0,0,5.641-5.932c0,.919,2.022-1.542,3.008-1.9a5.206,5.206,0,0,1,1.176-1.216c0-.623-1.176,1.008-1.646,1.246s.611-1.157,1.6-2.551c1.411-.919-.752,1.157-.517,1.275a8.3,8.3,0,0,0,2.068-2.195c-.564.326-.376,0-.564,0a14.107,14.107,0,0,0,1.645-1.661,34.262,34.262,0,0,1-3.337,2.966,30.713,30.713,0,0,1-3.336,3.767c-.565.326,1.033-1.127,1.362-1.483s-1.457,1.1-.987.919c-1.317-.3,6.864-6.792,10.341-10.647-.423.3-.846.593-.658.326-.7.445-.987,1.186-1.786,1.6a8.094,8.094,0,0,1,2.4-2.432c-.752.356.988-1.839,2.162-2.551a10.017,10.017,0,0,1-1.88,1.958c.659-.148-.235.682-.235,1.1,1.223-.949.94-.593,2.257-1.661a51.01,51.01,0,0,0-4.7,4.893c1.269-.83,0,.237,1.833-1.127,0,0-1.316.712,0-.83s3.385-2.966,4.7-4.686c-.752.534-1.081.682-.8.267-.752.652-1.5,1.364-2.21,2.076a6.732,6.732,0,0,1,1.176-1.631c.564-.415.375,0,0,0,1.551-1.275,0-.534,1.786-2.017v.564a31.708,31.708,0,0,1,3.2-3.381l1.88-1.839.8-.83,4.419-4.478c2.586-2.313-1.881,2.224,5.312-4.567l2.444-2.432,1.222-1.186.611-.593c0-.178.659-.475,0-.386h-18.85c1-.043,2.007-.043,3.008,0h-14.479c-.939,0,1.693-.5,3.714-.237-.988,0,.752-.267-.283-.415-2.566.254-5.159.383-7.757.385a18.072,18.072,0,0,0,3.1,0c0,.208-2.633,0-4.09.208s-.329,0-1.223-.208c-1.175.475-5.218,0-7.709.208-1.128-.326,3.525-.237,3.808-.445a10.57,10.57,0,0,0-1.364,0c-1.974,0,1.176-.178-.8-.267s-3.949,0-3.2.208c-1.565.066-3.136.066-4.7,0-.281,0,.564-.267,1.881-.178,0-.3-5.829.267-6.158-.178l-2.82.267a6.163,6.163,0,0,1,1.269.208,8.118,8.118,0,0,1-2.585,0,76.158,76.158,0,0,1-10.2-.148c-2.725.237-8.413,0-12.5,0,0,.208,1.881,0,3.056,0a62.5,62.5,0,0,1-7.193.178c-.705-.208,2.774,0,2.3-.208a12.171,12.171,0,0,1-2.539-.267c-1.08,0-3.149.356-4.7.534s-1.5-.237-2.962-.3-4.7.237-4,0c-3.423.182-6.861.231-10.294.148-2.021,0,1.739-.237-.282-.385s.659.267-1.5.386a11.809,11.809,0,0,1-3.384-.326c-1.317-.119-2.35,0-3.573,0,.375,0,0-.208-1.6-.326a3.526,3.526,0,0,1-1.411,0c-1.081,0,1.364,0,1.693.178a28.739,28.739,0,0,1-3.573,0h2.163c.517,0-.375.208-.564.3h-2.726c-1.88-.178.517,0,.564-.3a4.727,4.727,0,0,0-2.3.208h-6.252a10.449,10.449,0,0,0,1.552-.386,55.631,55.631,0,0,0-6.111-.237,31.194,31.194,0,0,0-6.017-.386c1.127,0,2.632,0,2.538.237-1.347.059-2.7.059-4.044,0-.892,0,.565,0-.986.237a51.2,51.2,0,0,0,5.312,0c.235,0,.659.178-.611.267a13.935,13.935,0,0,0-3.1,0c-1.976,0,1.174-.178-.753-.237,0,.237-2.21.237-4.089,0-1.176,0,.47.208,1.692.178h-2.3c-.8,0-3.056-.178-2.068-.3-.8,0-3.9.237-3.1,0q-2.337.216-4.7.267a8.593,8.593,0,0,0,1.41-.208,60.641,60.641,0,0,0-7.1,0h-1.693a63.46,63.46,0,0,0-10.671.771h-3.15c-1.082,0,1.692-.267-.659-.386a20.658,20.658,0,0,1,3.573,0c2.115,0,2.633-.267,1.081-.386h.423a26.545,26.545,0,0,1-4.043,0c-.987,0,1.364,0,1.833-.178h-3.478a45.882,45.882,0,0,1-8.884,0c-1.505.148-2.821.415,0,.415-.611-.208,1.175,0,2.726,0H1833.8c.658.178,5.312,0,7.521,0-7.286.3-18.145,0-26.842.356h.987a18.639,18.639,0,0,0-3.62,0c-.611-.237-1.786,0-3.478,0s3.008-.178.611-.267a34.25,34.25,0,0,1-5.829,0,22.229,22.229,0,0,1-5.359,0c-1.6.178-3.009,0-4.7.267-4.466-.5-13.163,0-21.154-.237a8.054,8.054,0,0,1-2.726,0c-1.833,0-1.411.178-1.5.267h-1.739a3.26,3.26,0,0,1,1.5-.326c-2.491,0-.8.3-3.573,0-.847.267-1.6.178-4.137.208-.847,0,.282,0,1.5-.267-4.372.237-10.812,0-14.1.564a32.38,32.38,0,0,1-3.526,0c-1.175,0,1.269-.208,0-.3s-1.41.178-1.081.267c-1.22-.047-2.446-.047-3.666,0-1.176,0,1.786-.415,3.854-.415h0a81.788,81.788,0,0,0-12.034,0c-1.552,0,2.162-.208,0-.267s-5.97,0-8.884,0a4.369,4.369,0,0,0-1.458.178s.611,0-.328-.178a13.928,13.928,0,0,0-1.881,0h0c-1.833,0-3.854,0-3.667.178a6.461,6.461,0,0,0-1.317,0H1695.5q-3.434.328-6.91.415h-.987c-.423,0,.517,0,.987-.148h-7.381c-1.345-.058-2.7-.058-4.042,0-1.6.326-10.249,0-14.761.267h13.21l-2.82.208h-1.223c-2.714.211-5.445.32-8.179.326q2.057-.185,4.137-.237s-1.128,0-.282-.208a48.39,48.39,0,0,1-6.863.326c-.659,0,0,0,1.034-.178-1.787,0-3.667.3-6.393.267-1.786,0,1.364-.178-.705-.237h0c.283,0-2.4,0-1.928.208h-6.252s3.149-.237,2.444-.326l-4.09.208h-9.683a22.281,22.281,0,0,0,2.35-.178c-3.384,0-4.372.356-7.615.208-.923.042-1.85.042-2.773,0h-7.662a30.185,30.185,0,0,1,4.937,0q1.833,0,3.667-.178-3.57-.123-7.145,0c-1.74,0,.61,0-1.129-.208s-7.145.267-11.282.356h1.833a21.054,21.054,0,0,1-2.538,0c-2.444,0-4.7,0-7.192.237-2.735-.022-5.47.087-8.179.326,1.927,0,3.9-.148,5.782,0h1.74a64.975,64.975,0,0,0,7,0q4.7.153,9.4,0a8.663,8.663,0,0,0,2.162,0H1631.9c0,.178,4.7,0,3.384.178h8.509a18.049,18.049,0,0,0,3.1,0c.72.03,1.443.03,2.162,0h0a108.007,108.007,0,0,1,11.141,0h3.2a7.952,7.952,0,0,1,2.068.178c3.056-.208,8.7,0,12.927,0a19,19,0,0,0,3.2-.178h-4c1.129,0,.8,0-.328-.208a30.8,30.8,0,0,1,6.2,0H1679.9c1.974,0,2.82,0,1.175.267h8.368c-.893.178-.471,0,1.645.178a42.5,42.5,0,0,1-4.372,0c-.8,0,1.081,0,0,.178h4.7c1.5,0-.47-.178-1.6-.237,2.538,0,5.03,0,7.663-.178.375,0-.47-.148,0-.237,2.679,0,0,.178,2.068.208h-1.364c2.445.208,8.415,0,11.33.237,3.713-.237,7.192,0,10.718,0,1.129,0-2.491.178-2.867.356,2.633,0,3.479-.237,3.949,0s.94-.208.235-.326h9.4a44.553,44.553,0,0,1,6.346-.178h-.988c-.719.031-1.442.031-2.162,0h-1.456c1.566-.071,3.136-.071,4.7,0-1.05.044-2.1.044-3.151,0-.658.178,2.586,0,3.479,0-3.056.3,3.431,0,5.688,0a5.482,5.482,0,0,1,2.4-.326c-1.316.178,1.08.178,1.128.356a10.5,10.5,0,0,1,1.364,0c-.752-.178,2.256-.178,2.867-.356,2.519.121,5.049.121,7.568,0,1.552,0,0,.178,0,.267a59,59,0,0,1,6.111.178l1.881-.148h-1.693a38.148,38.148,0,0,1-4.7,0h6.252c-.281.445,4.7.178,8.227.356h-4c0,.208,3.479,0,4.7,0,.47,0,.376-.208,1.081-.3,2.444,0,1.128.178,2.068.237a8.967,8.967,0,0,1,1.786,0c0-.237,2.3-.237,4.466,0-1.269-.237.7,0,2.82-.3s-3.244.208,0,.386a31.344,31.344,0,0,1,3.761-.385c2.114,0-2.633.178-1.975.3a23.571,23.571,0,0,0,4.137-.208c1.927,0-1.5,0-1.035.237a77.012,77.012,0,0,0,9.026-.178,16.388,16.388,0,0,0,2.068.267c2.022-.178,3.855,0,5.829-.148.517,0-.423.208,0,.3-.594.029-1.191.029-1.786,0-1.458,0,0-.148,0-.208-2.679,0-3.573.178-6.722,0,1.909.075,3.824.075,5.734,0h-7.191a8.689,8.689,0,0,1-2.162-.178,18.463,18.463,0,0,1-2.21,0c-.422.475-4.325,0-6.816.208-1.551,0,.517-.208-1.645-.208-1.364,0,.282.3-1.128.445h2.679a44.656,44.656,0,0,1,4.7,0,7.767,7.767,0,0,0-1.928.208h-5.359c-1.833,0,.469-.208-1.646-.208-6.111.339-12.253.408-18.38.208-.235,0,1.881-.178,1.081-.3,5.312,0,10.577.178,15.936,0h-2.678c-.752,0-3.15,0-1.176-.237h-4.7c-.329,0,1.364-.208-.705-.3a21.534,21.534,0,0,1-4.089,0c-1.645,0,.47-.178-1.176-.237-3.014-.041-6.028.038-9.026.237,0,0-.893,0-.329-.178,1.317,0,0,.178,1.786,0h-7.944l-3.291.267a23.27,23.27,0,0,0-2.491-.267c-1.928.237,1.033.208,1.55.326-1.692.148-3.1-.208-4.7,0s1.928-.3-.658-.415h.376c-3.479.148-6.816,0-10.2,0-1.88,0,.893.267,2.491.237a36.949,36.949,0,0,1-5.029.267c-.752,0,1.833,0,1.41-.178a12.872,12.872,0,0,0-2.633,0,16.337,16.337,0,0,1-2.35.267c-1.034,0-.987-.148,0-.208a27.637,27.637,0,0,1-4.7,0c-.612,0,2.539-.208.658-.3q-1.21.073-2.4.237c-.6.03-1.192.03-1.786,0,0,0,2.445,0,1.974-.267a27.2,27.2,0,0,1-3.854-.208h-11.611c2.633-.267-7.1,0-10.107,0,.283-.178,4.137,0,5.876-.208-3.525,0-6.863.208-9.4,0h.8c-1.316.148-2.4,0-3.667.148-3.149-.267-7.709,0-9.4-.178-4.184.178-6.535,0-9.919.267h1.645c-5.03.208-6.206,0-6.394-.326-1.175,0-.329.237-1.128.356h-5.734c1.075-.087,2.158-.136,3.242-.148h-7.99c-1.316,0-.893-.178,0,0a20.6,20.6,0,0,0-2.679,0h.8c-3.667,0-9.073-.237-14.1,0h-4.841c-3.62-.237-7.709,0-11.376,0q-5.943.2-11.893,0l4.7-.267c-4.418,0-9.073.3-11.141.178,0,.208-3.291.356-2.257.564h-6.581c0,.208,8.086,0,7.709.237q-1.292.045-2.585,0c-.423,0-3.62,0-5.454.208.328,0,.611-.178-1.551-.208a20.125,20.125,0,0,1-3.337.237q-3.243.089-6.487,0h-4.372c-2.021,0,1.787-.178,0-.208a22.293,22.293,0,0,1-3.242,0h.328a21.519,21.519,0,0,0-3.291.208h-4.56c-1.269,0,1.975,0,0-.178h-2.209c-3.677.154-7.369.154-11.047,0a4.918,4.918,0,0,0-1.5.178q1.268-.051,2.538,0h-4.513a20.16,20.16,0,0,0-3.761.208c-2.35,0,0,0-1.551-.148-2.051.077-4.107.077-6.158,0h-11a5.671,5.671,0,0,0-1.5.178c-1.571-.015-3.143.044-4.7.178h-7.051c-1.645,0,2.209,0,1.975-.208h3.1q-2.889-.1-5.782,0h-1.645c-2.3,0-6.957.237-7.615.208s-.893,0-.517,0q-2.349.082-4.7,0h4.983c-1.331.052-2.665.052-4,0h1.645c.891-.044,1.787-.044,2.679,0h4.467a32.157,32.157,0,0,1,3.573,0h21.576a5.914,5.914,0,0,0,1.692,0h5.547a46.536,46.536,0,0,1,5.453,0h2.068q-2.349.084-4.7,0c-2.786.109-5.58.109-8.367,0a14.676,14.676,0,0,1-2.445.178c4.7-.237,12.5,0,17.017-.267h10.389c.877-.03,1.756-.03,2.633,0h3.854c.846,0-.282,0-1.5.178,3.291,0,1.975-.237,5.5-.208h-.329c.892-.044,1.788-.044,2.679,0-1.928.208,4.7.178,7.286.237-2.679,0-9.119,0-9.026.178h-7.944q2.184.08,4.372,0-1.864.022-3.715.178c-.939-.178-2.585,0-3.337-.178-2.3,0-1.363,0-.705.208a17.106,17.106,0,0,1-2.539,0H1555c-.564.025-1.129.025-1.693,0a26.2,26.2,0,0,1-3.056,0h-6.628a54.132,54.132,0,0,0,5.876-.178h-4.42a31.537,31.537,0,0,1-4.042,0c-2.633,0,0,0-2.445.237h-28.064q.98-.11,1.975-.148h5.876a19.571,19.571,0,0,0-2.492.208H1526.7a6.957,6.957,0,0,1,1.786,0h12.74a26.506,26.506,0,0,0-2.915-.178h4.419c.485.022.973.022,1.458,0h37.888a43.045,43.045,0,0,1,6.2,0c.988,0-.328-.178.706-.3h10.436c-2.868.267,5.171,0,8.6.3,1.833,0,0,0-.752-.148h4.936a24.779,24.779,0,0,1,2.586,0,11.141,11.141,0,0,1,1.927-.178h2.539c5.312,0,4.372.148,11.094,0h11.987c1.681.014,3.362-.046,5.03-.178h0c5.359,0,10.483.237,16.077,0,1.646,0-.47,0,1.176.178h-2.726c4.231,0,9.4-.208,14.761,0,.752,0-3.432,0-.705-.237,2.029.145,4.07.2,6.111.178,1.457-.178-1.88,0-3.056,0h4.936a4.6,4.6,0,0,1-1.081.3c4.7,0,7.9-.267,13.021,0h2.162c.933-.1,1.875-.157,2.82-.178a6.5,6.5,0,0,0,1.645.178h4.843a40.007,40.007,0,0,0,6.863-.237c2.257,0,0,.178-1.08.267,3.1,0,6.393-.267,9.4,0,1.034,0-1.5.178-1.833,0a28.694,28.694,0,0,0,4.324.208h-.939a21.133,21.133,0,0,0-2.726,0h4.419c-.517,0,.752-.267,2.3-.178h-1.269a39.263,39.263,0,0,0,5.547-.267c1.928-.267-1.081.178.705.267a35.9,35.9,0,0,0,3.714-.267h10.671s-.376-.178,1.457-.237-1.269.3,2.492.326c-1.206.059-2.415.059-3.62,0q2.888.1,5.781,0s-.517,0,.517-.178a28.716,28.716,0,0,1,3.479.237c1.692,0,.611-.178,2.35-.267a27.8,27.8,0,0,0,4.7,0c1.222,0,0,.148,1.645.208a27.971,27.971,0,0,1-3.149,0c6.487.356,17.2,0,25.337.178a15.381,15.381,0,0,1-1.974.267h4.7c1.363,0,.8-.178.611-.237,5.054.236,10.129.236,15.184,0,1.269.178-1.6,0-1.457.267h5.781c.423,0,0,0,.517-.208,3.131.115,6.271.115,9.4,0a16.365,16.365,0,0,0,2.069.267,23.107,23.107,0,0,1,4.043,0c2.256-.386,7.568,0,11.234,0-.375,0,1.551,0,.752.237a41.633,41.633,0,0,1,6.676,0c.907-.043,1.818-.043,2.725,0l.8.178c.8.178,2.915,0,1.786,0a55.289,55.289,0,0,1,6.252,0c-.47-.178.7-.208,2.35-.208h5.641c-1.833.178-2.256,0-3.2.178q2,.068,3.995,0h-6.958c1.74,0,.329,0-.752-.178h-9.355c.847.237-1.692,0-1.88.237,2.068,0,4.183,0,6.3-.148a75.434,75.434,0,0,1-8.743.208c-3.2,0,0,0-1.881-.326-.281.267-2.914,0-4.7,0,1.411,0,5.312.178,3.855,0h-5.735c-1.786,0,.611-.178-1.176-.267l-2.3.178h-13.4c-2.378.107-4.767.107-7.145,0a18.564,18.564,0,0,1-3.149,0H1792.3l.564-.148c-1.646,0-1.223.148-2.3.148s-.61-.237,0-.326a42.281,42.281,0,0,1-5.217-.237c-.659,0,.987.3-1.128.415,2.726,0,1.222-.3,4.7,0,.517,0,0,.237-1.928.267-3.478,0-6.675-.3-10.154-.208-1.175-.208,1.552,0,2.821-.208a38.611,38.611,0,0,0-4.7,0h-1.034q-3.733.134-7.474,0a20.4,20.4,0,0,1-4.466,0,55.915,55.915,0,0,1-8.556,0c-.892,0-.423,0-.987.148-2.256-.148-4.7,0-4.7-.267l-3.29.237c-2.962,0,1.081-.237-.659-.356a53.87,53.87,0,0,1-5.781,0c-.376,0-2.3.208-2.915.326s2.3-.267.283-.415a45.75,45.75,0,0,1-8.6,0c-1.56.124-3.13.183-4.7.178,0,0,1.928-.237-.751-.208a9.356,9.356,0,0,1,2.4-.267,4.383,4.383,0,0,0-.893,0h-.847c-1.457,0-.47.178-1.927.267a35.1,35.1,0,0,1-4.278-.267h-4.7a34.883,34.883,0,0,0,5.313,0,11.21,11.21,0,0,1,2.068.237,37.207,37.207,0,0,1-4,0c-2.021,0,1.034,0-1.034.208a80.9,80.9,0,0,1-9.4-.178,31.707,31.707,0,0,0,3.526,0c.422.237-3.949.208-5.923.148-1.222-.148,3.15,0,1.88,0-1.347-.044-2.7-.044-4.042,0,2.82-.3-6.863,0-9.637-.267-1.081,0-4.466.208-6.91.326a60.323,60.323,0,0,0-8.038,0h-5.5a43.061,43.061,0,0,0-6.252,0c-.611,0,.564,0-1.222-.208h-15.56a16.729,16.729,0,0,1-4.371,0c.8.178-2.21.3-4.7.208h-4.372a10.06,10.06,0,0,0-2.115,0,18.424,18.424,0,0,1-3.714.208,28.062,28.062,0,0,0-3.008,0,24.607,24.607,0,0,1-3.62,0s.94,0,.564-.148-7.663,0-6.91.237c-1.551,0-3.384.148-4.7,0s1.551,0,2.82-.178h-4.7c-2.871.2-5.764.26-8.649.178,1.08-.045,2.164-.045,3.244,0,.892,0,.422,0,0,0q1.832.062,3.667,0c-2.026.024-4.051-.035-6.064-.178h-.611c-2.492-.178-13.022,0-16.876,0h-2.35c-1.566-.062-3.136-.062-4.7,0-1.269,0,0,0,0-.178h2.162c1.458,0-.94,0,1.928-.178H1573.8a3.034,3.034,0,0,0-.8,0h-3.807c6.722,0,13.538.148,20.354.178h.8a21.219,21.219,0,0,0,2.3,0h-29.662q-.822.028-1.644,0H1554.9c-3.808,0-5.688,0-8.743-.148-.94.148-2.915,0-4.7,0h-2.4q-1.362.043-2.726,0c.47,0,0,0-2.444.148h12.551a43.93,43.93,0,0,0,4.419,0c-.8.031-1.6.031-2.4,0h-80.239C1466.861,127.6,1463.758,127.6,1465.874,127.634Zm168.619.326Zm135.479.267h0Zm-419.833,55.015a15.592,15.592,0,0,1,1.787-1.661,12.038,12.038,0,0,1-1.787,1.661Zm-3.009-.386c1.646-1.453,1.786-1.631,3.15-2.966a14.017,14.017,0,0,0,1.833-1.6q.8-.591,1.693-1.127c1.363-1.246.328-.5,0-.237,2.256-1.809,2.162-1.513.94-.356-1.927,1.424-3.714,3.292-5.594,4.8-.987.712.987-.919.47-.593a20.013,20.013,0,0,1-2.492,2.076Zm213.606,29.272h4.936a34.261,34.261,0,0,1-4.936.059Zm140.367.445c.7.148,3.714,0,2.962.3s-4.419-.059-2.962-.3Zm106,.712a23.209,23.209,0,0,1-3.526,0c1.034-.237,4.184-.178,3.526,0ZM1637.878,121.7h-5.735q2.819-.09,5.64,0Zm36.431,1.453h-6.581c1.5,0,4.419-.148,6.487.059Zm-156.444,1.513c.485-.02.972-.02,1.457,0h2.162a30.218,30.218,0,0,1-3.714,0ZM1722.54,127.4h-9.4q4.649-.156,9.307,0Zm-85.978-.208h-4.7a40.85,40.85,0,0,1,4.606,0Zm-43.906-.237a15.455,15.455,0,0,1-2.774,0c-.846.03,2.115-.059,2.68,0Zm-111.223.652Zm62.286,0Zm60.735.178Zm12.88,0Zm-87.671-2.165h8.885c-2.962.148-7.662.178-8.979.119Zm125.418,2.462Zm-57.209-.564Zm-67.833-2.195h-2.586c.94,0,3.9,0,2.492.119Zm3.2,0c1,.047,2.007.047,3.009,0h-4.467c.455-.01.911,0,1.364.03Zm8.18,0h-4.7a45.024,45.024,0,0,1,4.607.178Zm54.812,1.9q1.363-.044,2.727,0a33.05,33.05,0,0,1-3.808,0c-.751.237,2.538.267.987.178Zm-40.944-2.076h-3.15c1.024.017,2.045.077,3.056.178Zm-25.855-.8c-1.173-.058-2.353-.058-3.526,0,0,0,6.441.03,3.432.178Zm76.671,2.966h7.9a43.393,43.393,0,0,1,4.984,0h-17.065a35.908,35.908,0,0,0,4.182.059Zm46.35.593Zm-55.892-.919h1.739c-.908.044-1.819.044-2.726,0,1.927.148-1.129.089,1.127.059Zm-51.71-2.61h-6.111q2.984-.077,5.969.059Zm25.056.86a31.912,31.912,0,0,1-4.09,0c1.222.148,2.679,0,3.948.059Zm-17.017-.593c-1.457,0,3.15-.3,5.124-.237a17.032,17.032,0,0,1-2.4.178,12.331,12.331,0,0,0-2.868.119Zm80.479,2.966h-6.2c.7.029,1.411.029,2.115,0h4.09Zm-60.265-2.313h2.633a13.33,13.33,0,0,0-2.868.237H1571.6Zm126.923,2.966h0Zm-19.931-.3h0Zm-111.034-3.529h-2.633c.517,0,.8-.03,2.4.03Zm16.453.326h0ZM1570,124.4c.94,0,.658,0,.658-.208h2.633c-3.714.208,3.15,0,2.022.178-2.051.081-4.108.081-6.158,0Zm23.222.623c-1.566-.068-3.136-.068-4.7,0,.988-.237,5.924-.178,4.467.03Zm3.526,0h1.692c1.269,0,0,0,.611-.148h1.128a22.754,22.754,0,0,1-3.149,0c.517,0,.94,0,0,0h-1.881c-2.162.386.846.267,1.552.178Zm11.94.564a47.026,47.026,0,0,1-5.782,0q2.726-.059,5.546.03Zm-31.966-1.3h.8c.376.089-.424.059-1.035.03Zm68.115,3.173Zm-58.478-2.966h-3.948a21.509,21.509,0,0,1,3.713-.089Zm115.877,3.648Zm-125.09-4.152a6.609,6.609,0,0,0,1.5-.178h3.573c.423,0-.376,0-.658.208,2.209-.178,4.278,0,6.346-.208q3.241.107,6.487,0h-10.671q-5.073.177-10.154,0a25.1,25.1,0,0,0,3.339.089Zm22.612.83a24.977,24.977,0,0,1-4.137,0c2.725.03,1.08-.089,3.9-.089Zm-16.641-.652h3.056c-1.552.03-4.7.03-3.291-.089Zm67.974,3.411h0Zm1.222,0Zm-57.774-3.381h.752c-1.189.058-2.383.058-3.573,0a15.353,15.353,0,0,1,2.585-.059Zm126.265,4.033ZM1592,123.986h1.223a21.645,21.645,0,0,1-3.1,0Zm37.983,1.572a5.185,5.185,0,0,1,1.222,0c-1.91.074-3.825.074-5.734,0,1.363,0,2.726.119,4.136,0Zm-30.6-1.453h7.052c-2.35,0-4.7.208-7.146,0,.424.059-.517.03-.093,0Zm10.2.445h1.88c.47,0,1.5,0,1.175.178a14.834,14.834,0,0,1-3.244-.178Zm-12.222-.682c.658,0-2.821,0-.705-.178s0,0,2.068,0l-2.351.148h-2.115c.988,0,1.88.059,2.915.03Zm70.043,3.648h-4.043c.988,0,4.372-.03,3.855,0Zm-45.881-2.966h-4.7a45.108,45.108,0,0,1,4.513,0Zm118.274,3.678ZM1634.3,124.995h-4.7A32.2,32.2,0,0,1,1634.3,124.995Zm42.778,2.521h6.158c-1.928.03-7.334.03-6.205,0Zm-61.958-4.449h2.021c.329,0,1.834.208-.611.178h-2.115c-1.927.178-3.573,0-5.406,0a34.674,34.674,0,0,0-4.325,0h.329c-3.808,0-1.5-.208.423-.445h2.538a6.681,6.681,0,0,1-1.222,0h2.3a26.037,26.037,0,0,1,3.056,0h-1.411Zm12.645.712c.907-.045,1.819-.045,2.726,0,1.754.069,3.512.069,5.265,0-2.162.178,1.928,0,2.539,0h-5.735a59.66,59.66,0,0,1-6.534.415c2.586,0,5.83-.356,1.693-.415Zm127.158,4.419h0Zm-67.175-.682Zm-82.641-4.6h0c-2.3.3-2.115-.03-.047,0Zm30.838,1.157-3.761.237h-1.739a33.745,33.745,0,0,1,5.453-.237Zm55.329,3.47Zm-29-1.987c2.35,0-1.881.237-3.2,0a22.319,22.319,0,0,0,3.15,0Zm-43.766-2.343c.893,0,2.633,0,1.175.178s-2.162-.178-1.222-.178Zm75.543,4.3Zm-.893-.267h-4.7a24.793,24.793,0,0,1,4.654,0Zm-88-5.338h1.363c1.128,0,.564,0,.282.178h-4.7a27.538,27.538,0,0,1,3.009-.178Zm179.9,6.347Zm-95.192-2.669a17.906,17.906,0,0,1-3.1,0,17.974,17.974,0,0,1,3.056,0Zm37.607,2.017Zm-30.274-1.868a39.916,39.916,0,0,1,6.582,0c-1.925-.089-3.857-.089-5.782,0,.893.03-1.128.119-.705,0Zm110.329,2.58h-5.782c1.786-.03,5.547-.03,5.877,0Zm-163.26-6.554h-3.432a32.592,32.592,0,0,1,3.526,0Zm36.2,1.216h4.325a48.412,48.412,0,0,0-5.03.178h-2.538a11.415,11.415,0,0,0,3.337-.178Zm61.581,4.36h-3.9c1.6-.03,2.727.119,4,0Zm-65.812-5.754c-1.652.141-3.316.21-4.984.208a41.134,41.134,0,0,1,4.984-.208Zm36.337,2.61a17.9,17.9,0,0,1-3.1,0,17.98,17.98,0,0,1,3.1,0Zm-12.551-1.157a34.514,34.514,0,0,1-4.7,0c1.505-.03,3.057,0,4.8,0Zm11.187.5h7.146a76.311,76.311,0,0,1-7.709.208,4.212,4.212,0,0,1-1.365,0,13.043,13.043,0,0,1,1.929-.208Zm36.761,2.343c-2.254.088-4.515.088-6.768,0,2.254-.088,4.515-.088,6.77,0Zm-61.112-4.686h-3.572c.893,0,0-.208,1.081-.326s.754.267,2.3.326Zm-7.192.208c-1.142-.056-2.289-.056-3.432,0,2.386-.184,4.79-.253,7.193-.208a25.408,25.408,0,0,0-3.949.208Zm7.474,0h-3.478c1.565-.07,3.137-.07,4.7,0h-4.372c.848.208,3.668.178,2.963.059Zm29.9,1.6h-3.525a16.329,16.329,0,0,1,3.339.208Zm-5.359,0c1.364,0-1.269,0,.611-.237s.9.445-.8.445Zm9.872.564q1.809-.065,3.619,0,1.739.068,3.479,0a24.2,24.2,0,0,0-2.773.208,9.891,9.891,0,0,0-3.1,0c-.986,0-1.409-.059-1.409-.119Zm68.068,3.974Zm54.812.682h2.163c-1.456.148-3.618.119-2.349.089Zm-153.2-7.029q-1.974.067-3.949,0a18,18,0,0,1,3.761.089Zm89.316,6.2Zm-72.064-6.139h-1.41a42.13,42.13,0,0,0-4.418,0c-.283,0,2.586,0,1.175.237a18.308,18.308,0,0,1-3.431-.178,54.581,54.581,0,0,1,7.9.03Zm59.326,4.923q2.865-.112,5.735,0a46.65,46.65,0,0,0-4.984.178C1766.868,126.537,1767.057,126.181,1767.809,126.181Zm-33.282-2.966a24.121,24.121,0,0,1,2.586,0c-1.27.267-4.09,0-2.586,0Zm-19.6-1.868a5.343,5.343,0,0,0-.987,0q-1.292.044-2.586,0a24.093,24.093,0,0,1,3.573-.03Zm28.487,1.9a38.41,38.41,0,0,1-4.09,0,38.393,38.393,0,0,1,4.089-.03Zm12.551.564q-1.629.028-3.243.178c-.752,0-1.222,0-1.222-.178a24.955,24.955,0,0,1,4.465-.03Zm-9.777,0h5.312a22.224,22.224,0,0,1-5.313-.089Zm-25.29-2.076a17.443,17.443,0,0,1-3.525,0,34.635,34.635,0,0,1,3.525-.089Zm28.675,1.69c-1.2.059-2.414.059-3.619,0a14.042,14.042,0,0,1,3.619-.208Zm5.5-.3a18.338,18.338,0,0,0-3.761.356c-1.645,0-1.034,0-1.645-.178,1.2-.1,2.408-.163,3.619-.178h-1.268a45.9,45.9,0,0,1,5.688,0,8.038,8.038,0,0,1-1.457.178c-1.741-.089-.565-.089-1.176-.267Zm6.44.356h-8.932a57.231,57.231,0,0,1,8.931-.089Zm-41.274-2.758h-6.675c2.218-.133,4.449-.163,6.675-.089Zm12.692.89a5.119,5.119,0,0,1-2.3.178,9.363,9.363,0,0,1,2.4-.267Zm-2.586-.741c2.4,0-1.88.178-.61.237s2.491-.148,3.572,0q-3.593.132-7.192,0c.705-.148,3.056-.089,4.23-.326Zm34.458,2.966c3.056-.208,5.97,0,4.7.326a30.983,30.983,0,0,0-4.7-.356Zm.752-.445-2.35.178h-.8a18.373,18.373,0,0,1,3.15-.208Zm-16.782-1.6c1.269,0,0,0-.611.237a4.294,4.294,0,0,1-1.74,0Zm-7.1-.741c.939,0,.8.237-.659.386s-.988-.386.658-.415Zm21.858,1.957a11.526,11.526,0,0,1,3.479,0,9.052,9.052,0,0,1-3.479-.03Zm-14.1-2.046c.719.03,1.442.03,2.161,0a31.22,31.22,0,0,0-4.137.208,36.325,36.325,0,0,0-3.9,0c1.88-.237,3.572-.089,5.735-.237Zm12.268.267c-2.679-.208-8.085,0-9.4,0,2.585-.148,9.777-.415,9.26-.03Zm-2.679,0c-.94,0,.564,0-1.034.208-.721.03-1.443.03-2.162,0a29.01,29.01,0,0,1,3.054-.208Zm15.653-.208h3.056c-1.2.058-2.415.058-3.62,0,.422.119-.048.059.422,0Zm38.642,2.284c-1.552,0-6.206.208-4.7,0a36.663,36.663,0,0,1,4.559-.089Zm43.154,4.093h-1.881a16.294,16.294,0,0,0,1.738,0Zm-44.376-4.271a17.911,17.911,0,0,1-3.1,0c1.222,0,1.222-.326,2.4-.267-.612.059.469.178.563.356Zm1.5-.326c2.209,0,0,.356-1.458.237-.094-.059-.518-.148,1.316-.237Zm-17.252-1.72a25.071,25.071,0,0,0,3.948,0q-3.359.109-6.723,0Zm17.44,1.394-1.881.178h-1.269a22.146,22.146,0,0,1,3.01-.178Zm7.568.741a35.835,35.835,0,0,1,4.372,0,21,21,0,0,1-4.513,0Zm5.688.208,1.692.148c-.987,0-4.184.178-3.573,0a5.232,5.232,0,0,0,1.881-.148Zm43.718,3.974H1867.7c6.3,0,12.552,0,18.8.178-1.928.178-3.479,0-5.359,0h1.223a24.172,24.172,0,0,1-2.961,0c-2.068.178-3.809,0-5.876,0h.752a12.648,12.648,0,0,0-1.693,0h-3.244s1.787-.03,1.269-.178Zm-49.076-4.716c1.928.237,4.137,0,6.158.148-1.269.178,0,.3-2.444.356s-.376-.208-.705-.3q-2.045-.066-4.09,0c-1.693,0-.47-.089.94-.208Zm-15.136-1.542a26.578,26.578,0,0,1-4.7.178c1.511-.13,3.035-.19,4.559-.178Zm31.637,2.966h-3.15a14,14,0,0,1,3.008.089Zm14.1-.949a13.455,13.455,0,0,1,2.21,0,38.906,38.906,0,0,1-6.488-.356l-2.3.178c-3.4-.164-6.805-.164-10.2,0a14.269,14.269,0,0,1-2.868.385c0-.3-1.739,0-3.526,0q3.526-.174,7-.593a109.769,109.769,0,0,0,11.611,0c-.422,0-2.915.178-1.88.237a38.448,38.448,0,0,0,4.983-.178h-1.269c1.6,0,5.688-.148,5.735,0-2.162,0-5.64.178-3.808.386a31.4,31.4,0,0,1,6.252,0c-2.021,0-6.769-.237-5.828,0Zm2.021-.386a19.092,19.092,0,0,1,3.244-.208h2.538c-2.038.2-4.1.3-6.159.3Zm-47.572-1.631h6.675a48.473,48.473,0,0,1-7.052.089Zm17.487,1.275a19.331,19.331,0,0,1-2.632,0c.422-.178,3.149-.03,2.255.089Zm8.415,0c-1.128,0-4.7.178-4,0a26.148,26.148,0,0,0,3.619.178Zm-15.23-1.394a16.993,16.993,0,0,1-3.573,0,24.16,24.16,0,0,1,3.2.178Zm74.038,6.287h-2.35c-2.586.178.7.148,1.973.178Zm4.936,0Zm-51.709-4.864c-1.081,0-4.7.178-4,0q1.791.035,3.571.178Zm-7.757-1.186a14.011,14.011,0,0,1-3.149,0,15.888,15.888,0,0,1,2.678.178Zm25.808,1.631h3.525a20.389,20.389,0,0,1-3.666.267c.422.059-1.505.059-.283.059Zm9.12.356q1.081.044,2.162,0h-.893c-2.4-.178-.7.178-1.928.237a25.964,25.964,0,0,1-3.056,0,10.993,10.993,0,0,0,3.29-.059Zm-4.7-.741c.564,0,1.739.148,1.222.208-2.066.089-4.139.089-6.2,0a41.435,41.435,0,0,0,4.324-.03Zm126.688,5.754h-2.82a19.608,19.608,0,0,0,2.161.178Zm-77.094-.979h.282c.752.208,1.739.208-.94.178Zm-34.457-3.915c-1.692,0-2.021,0-1.645-.237a66.407,66.407,0,0,1-10.154-.208c3.568.169,7.15.169,10.718,0-.611,0,0,.237.752.326s.376-.178,2.3-.208c.987,0,0,0,.329.208a11.584,11.584,0,0,1,2.726,0c-1.175-.178,1.6-.208,2.726,0-1.087.13-2.187.22-3.29.267a20.143,20.143,0,0,0-5.124.03Zm-32.671-3.114a44.4,44.4,0,0,0,5.5-.267c1.786.208-.94.178-2.022.386a11.786,11.786,0,0,0-2.679,0C1849.274,120.249,1848.9,120.249,1849.6,120.249Zm31.5,2.64h5.734q-2.043.067-4.09,0c.705.119-3.573.148-1.645-.089Zm-15.8-2.076a10.381,10.381,0,0,1-3.2.208c1.054-.142,2.121-.241,3.2-.3Zm-2.256-.771a16.8,16.8,0,0,0-3.2.208c1.128,0,2.21,0,1.223.178s-5.03,0-4.7-.178a57.92,57.92,0,0,1,6.674-.3Zm28.534,3.262a13,13,0,0,0,3.056,0c-.8,0-4.512.178-3.056-.089Zm-8.555-1.483h-5.406a33.13,33.13,0,0,1,5.406-.089Zm-15.654-1.483a6.313,6.313,0,0,0-.987,0c-1.034,0-4.372,0-3.9-.178,1.55.089,3.336-.089,4.888.089Zm42.966,2.966h-10.766c.611,0,1.646.208.283.3-.376-.356-1.834,0-4.325-.237,1.739-.178,3.056-.178,2.444-.475,4.106.273,8.236.382,12.363.326Zm75.214,15.719L1988,136.68a28.721,28.721,0,0,1-2.21,2.195Zm-38.078-11.389h2.68q-2.772.088-5.547,0Zm-71.265-7.385h0Zm40.992,4.241a48.046,48.046,0,0,1-6.159-.178,48.366,48.366,0,0,1,6.16.237Zm-4.043-.83c2.3.178,4.7,0,7.052.178a75.9,75.9,0,0,1-8.462,0,3.315,3.315,0,0,0,1.41-.119Zm-33.329-3.5c-.752,0,.893.148.329.208s-2.4,0-3.525,0a19.8,19.8,0,0,1,3.2-.119Zm8.415,0a33.177,33.177,0,0,1-4.7,0,38.448,38.448,0,0,1,4.607.089Zm25.666,2.966a17.808,17.808,0,0,1,4.7.237c-.892,0-1.363,0-1.457.208h-.847c1.035-.356-.234-.356-2.4-.356Zm-29.85-3.381q3.547-.134,7.1,0c-2.351,0-1.74.3-3.761.326s.235-.356-1.6-.326c-.7,0,.376.208-1.457.3s-.517-.148-.282-.267Zm10.389.534a7.6,7.6,0,0,1-1.927.267c-1.081-.208-2.35,0-3.479-.178h.94c1.491.018,2.982-.021,4.465-.119ZM1929,123.245c-2.115,0-8.085.386-7.145,0,2.3.208,4.842-.03,7.145-.03Zm13.022.712c-1.2.059-2.415.059-3.62,0a14.364,14.364,0,0,1,3.62.03Zm.658-.475c-2.679,0-9.4.208-9.4-.237,2.867.267,8.18-.03,9.4.267Zm15.042,1.1a24.911,24.911,0,0,1-3.62,0,15.57,15.57,0,0,1,3.621.03Zm-2.773-.652c2.478.2,4.977.28,7.474.237-3.13.137-6.272.137-9.4,0,1.316-.03.235-.119,1.927-.208Zm.987,0c2.492.237,3.009-.326,5.829,0-2.491,0-1.269,0-2.4.3s-4.888-.178-3.431-.415Zm15.09,0a23.991,23.991,0,0,1-4.089,0,12.014,12.014,0,0,1,4.09,0Zm-28.2-3.262a32.5,32.5,0,0,1-4.466,0,37.817,37.817,0,0,1,4.419,0Zm-.8-.178h-3.479c1.143-.044,2.289-.044,3.432,0Zm6.44.475c-.8,0,1.176.178.8.267a14.011,14.011,0,0,1-3.149,0c1.411-.059,0-.326,2.3-.267Zm0-.89s-2.021.208-1.551.386a14.845,14.845,0,0,1,3.056,0,52.623,52.623,0,0,1-6.768.208c3.478-.089,1.363-.8,5.264-.593ZM1987.1,124.7a12.6,12.6,0,0,1-3.055,0c1.018-.045,2.039-.045,3.056,0Zm-32.294-4a12.6,12.6,0,0,1-3.151,0,14.092,14.092,0,0,1,3.152,0Zm27.453,2.966a46.189,46.189,0,0,1,6.629.178,30.141,30.141,0,0,0,4.983-.208l1.693.178c-1.223,0-2.257,0-2.35.208a14.156,14.156,0,0,0-4.7,0c-1.881,0-.283-.178-.753-.267l-2.35.237c-1.926-.059.377-.178-3.243-.267Zm22.047.356c4.184,0,.847.237-3.666.267h-5.407a11.143,11.143,0,0,1-1.645,0c.564,0,0,0,.517-.208h3.573q3.313.105,6.63,0Zm-1.927,7.385c-.705.5-.752.445-.611,0v-.267h0l.517-.564,2.115-2.254c.752-.682,1.5-1.424,2.21-2.135l1.128-1.1.564-.534c0-.178.659-.445,0-.386h.329l-.283.3-.517.564-.987,1.038c-.705.771-1.269,1.335-1.834,1.9l-1.645,1.72-.846.919-.376.475a.428.428,0,0,0,.237.386Zm-7.24,5.012a11.677,11.677,0,0,1,2.21-2.135,8.486,8.486,0,0,1-2.208,2.194Zm-72.581,63.2c-.611.593-2.444,2.373-2.209,2.106l1.5-1.483Zm60.03-49.973c-1.739,1.157,1.693-2.7,1.974-2.284-1.174.979-.7,1.068-1.974,2.343Zm-63.978,53.74-2.162,2.135h.094a20.417,20.417,0,0,1,2.07-2.076Zm-10.389,2.135Zm78.928-53.68a13.166,13.166,0,0,1,2.445-2.343,9.508,9.508,0,0,1-2.444,2.4Zm-4.137,4.419c-.282.89-1.175,1.127-1.974,1.868.893-.415,0,.86-.423,1.364-1.41,1.008,1.035-1.691-.376-.682a2.2,2.2,0,0,1-.517.89c-.329.326-2.068,1.69-1.74,1.186,1.552-1.216,5.829-6.821,5.407-5.16.987-.949,3.056-3.262,3.525-3.2a18.282,18.282,0,0,1-3.9,3.8Zm-1.034,1.779a42.436,42.436,0,0,1,3.573-3.618,22.963,22.963,0,0,1-3.384,3.677ZM1878.56,205.485h-6.676c2.164.148,6.113.119,6.865.178Zm99.234-43.211c-.375.237-1.127.8-.987.5a4.885,4.885,0,0,0,2.069-2.195c1.035-.386-.329.949-1.128,1.868Zm-5.171,4.033c-.752.415-1.081,1.186-1.881,1.542.519-.564,2.351-2.195,2.022-1.364Zm3.009-1.068c-.753.534-1.081.682-.8.237a5.006,5.006,0,0,0,1.08-.86,6.379,6.379,0,0,1,.705-.742Zm-119.4,40.245Zm107.6-30.666c0-.237-1.222.949-1.364,1.038s0,.148,0,.415c-1.222,1.275-1.927,1.483-1.175.386a26.373,26.373,0,0,1,4.042-3.678c-.939,1.186-1.127,1.6-1.55,2.017Zm-115.406,30.607h1.692a14.066,14.066,0,1,0-1.738.178Zm108.778-24.675a10.887,10.887,0,0,1-2.257,2.076,9.858,9.858,0,0,1,2.163-2.135c-.141.326-.235.445.047.237Zm-128.757,24.764h0ZM1950.3,188.136a36.274,36.274,0,0,1-3.854,3.381,28.907,28.907,0,0,0,2.209-2.135c-.517.326-.892.741-1.41,1.068.611-.712,1.6-1.779,1.41-1.9.612-.089,1.27-.3,1.6-.089Zm-130.731,17.35h1.5c.942.178.518.207-1.55.178Zm125.325-12.634c-1.41,1.008-1.551.741-1.364.237a11.887,11.887,0,0,0,1.082-.86c-.423.83,1.27-.5.236.8Zm-129.226,12.634ZM1941.833,196a39.861,39.861,0,0,1,3.948-3.737c-1.364,1.364-1.551,1.69-2.586,2.669,0-.148,0,0-.376,0a2.866,2.866,0,0,1-1.032,1.245Zm-2.21,1.75c0-.356-.423,0-.47,0a27.756,27.756,0,0,1,4.137-4c-.658.83,0,.386-.611,1.216a21.706,21.706,0,0,1-3.1,2.966Zm-135.243,7.77a21.354,21.354,0,0,0,2.444,0h-2.444Zm134.068-5.754c-.611.445-.423,0-.987.534s0,0,0,.326c-1.176.949-.706.267,0-.475a7.731,7.731,0,0,0,1.081-.86c-.328.178,0-.208.282-.623l.893-.593c-1.316,1.572-1.175,1.335-1.316,1.868Zm-4.137,2.758a21.339,21.339,0,0,1-2.491,2.343c.565-.771,2.069-2.313,2.445-2.165Zm-5.077,5.457-1.034,1.1-.517.534-2.586,2.4c.705-.682,1.223-1.275,1.74-1.779l.517-.534v-.148l.517-.475a11.427,11.427,0,0,0,.987-.919s-.564.386-.376,0,.612,0,.706,0Zm-17.58,5.4h4.418C1914.711,213.612,1911.232,213.612,1911.655,213.374Zm.94,0a6.534,6.534,0,0,0-1.317,0c-1.128,0-1.5-.208-.8-.3a18.3,18.3,0,0,1,2.209,0c-.7.089.236.148-.187.208Zm-10.2,0a52.446,52.446,0,0,1,7.145,0c-2.585-.03-4.841-.267-7.286-.178Zm-1.6.5a27.288,27.288,0,0,1,5.923-.208,40.3,40.3,0,0,1-6.017.03Zm-10.812-.652a3.7,3.7,0,0,0-1.27-.237,31.937,31.937,0,0,1,5.829,0,28.081,28.081,0,0,0-4.653.059Zm-26.607.534c1.081,0-1.364,0-1.692-.208a17.982,17.982,0,0,1,3.056,0,11.55,11.55,0,0,1-1.457.03Zm-183.756-.8c-1.164-.013-2.326-.072-3.478-.178,1.807-.156,3.63-.225,5.453-.208h1.269a13.441,13.441,0,0,0-3.338.208Zm-14.62-.326c1.834.208,4.7,0,3.9.237-1.127-.3-4.512-.208-3.995-.415Zm-169.7-6.614h3.291a13.812,13.812,0,0,0-3.385-.178Zm4.7,0h1.739a11.966,11.966,0,0,1,1.927,0h-4.418c-.423-.208-1.269-.208.705-.237Zm121.094,6.643c-1.33.06-2.665.06-3.995,0,0-.148,1.927,0,3.243-.237s-.14-.089.706,0Zm-132.517-6.821h0Zm123.256,6.376a23.885,23.885,0,0,1,3.573,0c.377-.03-4.324.237-3.62-.03Zm-124.573-6.376Zm-6.582,5.932h4.7a20.387,20.387,0,0,1-4.747,0Zm-7.192,0h6.675a45.129,45.129,0,0,1-6.722-.03Zm-3.2,0h3.15a22.267,22.267,0,0,1-3.2.089Zm-141.025-5.338h0Zm2.867-4.864c.422-.386.658-.564.47-.386l-5.124,4.627c1.6-1.394,3.01-2.7,4.654-4.152Zm56.41,9.55a50.163,50.163,0,0,1,5.453,0q-2.627.127-5.264.089Zm-48.983-16.638c-2.115,2.076-4.042,3.826-5.124,4.864l-.987.86c1.787-1.275,3.338-3.114,6.3-5.635Zm17.111,16.846h-2.3c-2.209-.148,1.646-.178-1.457-.356,1.565-.056,3.135-.056,4.7,0-2.538.119-3.43.237-.657.445Zm1.833-33.81h0l-1.739,1.572Zm-10.952,7.978a12.972,12.972,0,0,0,1.5-1.542c1.128-.919.282,0,.564-.326l.8-.652c-1.269,1.157-2.444,2.135-1.739,1.72A5.211,5.211,0,0,0,1347.553,185.5Zm-11.752,7.3c-.658.445-1.222,1.1-1.88,1.542.329-.653,2.163-2.135,1.786-1.69Zm7.474-6.317c-1.316,1.186-2.633,2.373-4,3.44a43.33,43.33,0,0,1,3.9-3.589Zm5.359-4.449a21.468,21.468,0,0,1-2.163,1.779,24.268,24.268,0,0,1,2.069-1.928Zm-.705,0a8.381,8.381,0,0,0,1.081-.89c1.223-.949-1.128,1.127-1.6,1.424.141-.474.141-.563.424-.652Zm47.948-39.623s-1.363,1.246-2.115,1.9l.752-.712Z" transform="translate(0.02 0)" fill="#2e2e2e" fill-rule="evenodd"/>
    <path id="Path_48320" data-name="Path 48320" d="M1419.568,119.216h.267c3.2-.386,6.2,0,9.342-.326h-7.325A5.836,5.836,0,0,1,1419.568,119.216Z" transform="translate(399.342 1.033)" fill="#2e2e2e" fill-rule="evenodd"/>
    <path id="Path_48321" data-name="Path 48321" d="M1354.1,121.58Z" transform="translate(153.567 6.321)" fill="#2e2e2e" fill-rule="evenodd"/>
    <path id="Path_48322" data-name="Path 48322" d="M1371.27,121.58Z" transform="translate(217.025 6.321)" fill="#2e2e2e" fill-rule="evenodd"/>
    <path id="Path_48323" data-name="Path 48323" d="M1357.821,121.261h1.958C1358.592,121.2,1358.888,121.321,1357.821,121.261Z" transform="translate(166.699 5.661)" fill="#2e2e2e" fill-rule="evenodd"/>
    <path id="Path_48324" data-name="Path 48324" d="M1363.956,121.47Z" transform="translate(188.166 6.105)" fill="#2e2e2e" fill-rule="evenodd"/>
    <path id="Path_48325" data-name="Path 48325" d="M1362.747,121.44h0Z" transform="translate(184.718 6.046)" fill="#2e2e2e" fill-rule="evenodd"/>
    <path id="Path_48326" data-name="Path 48326" d="M1375.67,121.63h0Z" transform="translate(233.577 6.419)" fill="#2e2e2e" fill-rule="evenodd"/>
    <path id="Path_48327" data-name="Path 48327" d="M1361.75,121.359h3.292a23.065,23.065,0,0,0-3.292,0Z" transform="translate(183.597 5.771)" fill="#2e2e2e" fill-rule="evenodd"/>
    <path id="Path_48328" data-name="Path 48328" d="M1380.54,121.68Z" transform="translate(251.287 6.518)" fill="#2e2e2e" fill-rule="evenodd"/>
    <path id="Path_48329" data-name="Path 48329" d="M1350.909,120.649h.8C1352.036,120.619,1351.235,120.649,1350.909,120.649Z" transform="translate(135.575 4.465)" fill="#2e2e2e" fill-rule="evenodd"/>
    <path id="Path_48330" data-name="Path 48330" d="M1364.21,121.349h3.144A28.062,28.062,0,0,0,1364.21,121.349Z" transform="translate(191.563 5.781)" fill="#2e2e2e" fill-rule="evenodd"/>
    <path id="Path_48331" data-name="Path 48331" d="M1379.814,121.61h1.631C1381.979,121.61,1380.141,121.64,1379.814,121.61Z" transform="translate(247.733 6.38)" fill="#2e2e2e" fill-rule="evenodd"/>
    <path id="Path_48332" data-name="Path 48332" d="M1360.5,120.689h1.513a33.6,33.6,0,0,0-3.411,0,14.123,14.123,0,0,1,1.9,0Z" transform="translate(170.808 4.484)" fill="#2e2e2e" fill-rule="evenodd"/>
    <path id="Path_48333" data-name="Path 48333" d="M1369.59,121.028h2.758a10.458,10.458,0,0,1,1.245-.178C1372.318,120.939,1369.975,120.939,1369.59,121.028Z" transform="translate(211.704 4.886)" fill="#2e2e2e" fill-rule="evenodd"/>
    <path id="Path_48334" data-name="Path 48334" d="M1391.087,121.65h0Z" transform="translate(286.043 6.459)" fill="#2e2e2e" fill-rule="evenodd"/>
    <path id="Path_48335" data-name="Path 48335" d="M1391.88,121.65h0Z" transform="translate(294.489 6.459)" fill="#2e2e2e" fill-rule="evenodd"/>
    <path id="Path_48336" data-name="Path 48336" d="M1393.89,121.65h0Z" transform="translate(301.184 6.459)" fill="#2e2e2e" fill-rule="evenodd"/>
    <path id="Path_48337" data-name="Path 48337" d="M1369.193,119.69h.771a11.863,11.863,0,0,0,1.453,0Z" transform="translate(209.453 2.606)" fill="#2e2e2e" fill-rule="evenodd"/>
    <path id="Path_48338" data-name="Path 48338" d="M1378.19,119.695a41.516,41.516,0,0,0,5.012,0h-1.661C1380.592,119.576,1379.228,119.784,1378.19,119.695Z" transform="translate(243.884 2.542)" fill="#2e2e2e" fill-rule="evenodd"/>
    <path id="Path_48339" data-name="Path 48339" d="M1383,119.857a16.611,16.611,0,0,0,3.322,0c-.237-.208-2.966,0-2.669-.237C1382.2,119.768,1384.127,119.8,1383,119.857Z" transform="translate(261.287 2.468)" fill="#2e2e2e" fill-rule="evenodd"/>
    <path id="Path_48340" data-name="Path 48340" d="M1401.028,121.1h1.69c.3,0-1.453.237-.86,0C1401.236,121.042,1401.592,121.161,1401.028,121.1Z" transform="translate(327.375 5.346)" fill="#2e2e2e" fill-rule="evenodd"/>
    <path id="Path_48341" data-name="Path 48341" d="M1393.61,119.738a30.729,30.729,0,0,0,3.322,0c-.386.178,1.839.3,2.64.326,0-.178-.712-.326-1.157-.5-.326.326-1.779,0-3.648,0a2.4,2.4,0,0,1-1.157.178Z" transform="translate(301.48 2.35)" fill="#2e2e2e" fill-rule="evenodd"/>
    <path id="Path_48342" data-name="Path 48342" d="M1396.65,119.9h4.449c1.3,0-1.958,0-1.038-.178a22.722,22.722,0,0,1-3.411.178Z" transform="translate(312.387 2.665)" fill="#2e2e2e" fill-rule="evenodd"/>
    <path id="Path_48343" data-name="Path 48343" d="M1396.118,119.62h.534c.534,0,.475,0,.208.178h1.394c-.5,0-.8-.267.89,0a4.324,4.324,0,0,1-.8-.178,9.347,9.347,0,0,1-2.225,0Z" transform="translate(308.14 2.468)" fill="#2e2e2e" fill-rule="evenodd"/>
    <path id="Path_48344" data-name="Path 48344" d="M1402.143,119.63h-1.394c-1.127,0,.148,0-.949.237C1400.719,119.808,1400.749,119.719,1402.143,119.63Z" transform="translate(323.262 2.488)" fill="#2e2e2e" fill-rule="evenodd"/>
    <path id="Path_48345" data-name="Path 48345" d="M1405.786,119.08H1404.6c1.038,0-.682.148.742.208h.89c-.5,0-.949-.178.623,0C1407.418,119.08,1405.786,119.2,1405.786,119.08Z" transform="translate(341.056 1.407)" fill="#2e2e2e" fill-rule="evenodd"/>
    <path id="Path_48346" data-name="Path 48346" d="M1411.875,119.909h.267c.415,0,0,0-.623.208.89,0,2.165-.208,1.216-.3a4.213,4.213,0,0,1-.86.089Z" transform="translate(366.38 2.861)" fill="#2e2e2e" fill-rule="evenodd"/>
    <path id="Path_48347" data-name="Path 48347" d="M1422.061,121.447h.3a18.351,18.351,0,0,0,2.55,0,17.284,17.284,0,0,0-2.787,0C1421.883,121.358,1422.446,121.418,1422.061,121.447Z" transform="translate(405.949 5.95)" fill="#2e2e2e" fill-rule="evenodd"/>
    <path id="Path_48348" data-name="Path 48348" d="M1417.341,118.922a18,18,0,0,0-3.351,0c1.245.208,2.58,0,3.826.267a27.186,27.186,0,0,1,4.033-.267,32.636,32.636,0,0,0-4.508,0Z" transform="translate(378.043 0.942)" fill="#2e2e2e" fill-rule="evenodd"/>
    <path id="Path_48349" data-name="Path 48349" d="M1416.32,119.236a38.094,38.094,0,0,1,4.508,0,53.391,53.391,0,0,1,6.5-.178s-.563,0-.208-.178a16.668,16.668,0,0,1-3.648,0c-1.839.148-3.559,0-5.338,0-.326,0,.415,0,.771.178A6.414,6.414,0,0,0,1416.32,119.236Z" transform="translate(388.038 1.014)" fill="#2e2e2e" fill-rule="evenodd"/>
    <path id="Path_48350" data-name="Path 48350" d="M1415.39,118.67a37.1,37.1,0,0,0,8.066,0A63,63,0,0,1,1415.39,118.67Z" transform="translate(383.345 0.601)" fill="#2e2e2e" fill-rule="evenodd"/>
    <path id="Path_48351" data-name="Path 48351" d="M1422.44,118.807h3.352a16.47,16.47,0,0,0-3.352,0Z" transform="translate(407.575 0.701)" fill="#2e2e2e" fill-rule="evenodd"/>
    <path id="Path_48352" data-name="Path 48352" d="M1427.54,118.957h8.66c-1.1-.208-2.373,0-2.729-.208-.3.3-2.284,0-3.411.178s.89-.3-.771-.267C1429.735,118.928,1428.9,118.957,1427.54,118.957Z" transform="translate(428.909 0.58)" fill="#2e2e2e" fill-rule="evenodd"/>
    <path id="Path_48353" data-name="Path 48353" d="M1427.39,118.748a18.3,18.3,0,0,0,3.351,0c.653-.148-1.038,0-1.334-.178a5.433,5.433,0,0,1-2.018.178Z" transform="translate(426.001 0.404)" fill="#2e2e2e" fill-rule="evenodd"/>
    <path id="Path_48354" data-name="Path 48354" d="M1430.65,118.941h5.932A18.21,18.21,0,0,0,1430.65,118.941Z" transform="translate(439.225 0.656)" fill="#2e2e2e" fill-rule="evenodd"/>
    <path id="Path_48355" data-name="Path 48355" d="M1440.84,118.9h2.313A15.054,15.054,0,0,0,1440.84,118.9Z" transform="translate(514.016 0.935)" fill="#2e2e2e" fill-rule="evenodd"/>
    <path id="Path_48356" data-name="Path 48356" d="M1447.469,118.64l-1.75.237a11.035,11.035,0,0,1,2.966,0C1449.516,118.64,1447.8,118.7,1447.469,118.64Z" transform="translate(523.609 0.542)" fill="#2e2e2e" fill-rule="evenodd"/>
    <path id="Path_48357" data-name="Path 48357" d="M1451.79,118.716c.356.415,1.72-.208,2.966.237a1.247,1.247,0,0,1,.623-.178A24.829,24.829,0,0,0,1451.79,118.716Z" transform="translate(535.542 0.614)" fill="#2e2e2e" fill-rule="evenodd"/>
    <path id="Path_48358" data-name="Path 48358" d="M1462.573,124.913c.416-.564,0-.208-.178.208s0-.326,0-.475a18.8,18.8,0,0,1-1.542,2.343,16.263,16.263,0,0,1-2.195,3.678c-.623,1.127.5-.415,0,.682.8-1.424,1.809-2.61,2.551-4.093.326-.386.237,0,.593-.534C1461.505,126.663,1462.128,125.566,1462.573,124.913Z" transform="translate(548.663 12.3)" fill="#2e2e2e" fill-rule="evenodd"/>
    <path id="Path_48359" data-name="Path 48359" d="M1452.941,137.56c-.949,1.1-1.483,2.7-2.491,3.737,0,.326.386-.267.623-.5C1451.577,139.547,1452.466,138.865,1452.941,137.56Z" transform="translate(532.908 37.734)" fill="#2e2e2e" fill-rule="evenodd"/>
    <path id="Path_48360" data-name="Path 48360" d="M1447.206,145.93a13.988,13.988,0,0,0-2.046,2.966C1445.842,147.947,1446.465,146.849,1447.206,145.93Z" transform="translate(522.508 54.187)" fill="#2e2e2e" fill-rule="evenodd"/>
    <path id="Path_48361" data-name="Path 48361" d="M1436.632,150.43c-.475,0-.386.237-.682.356a11.866,11.866,0,0,0,2.284,0,6.434,6.434,0,0,0-1.69,0C1436.1,150.608,1438.352,150.638,1436.632,150.43Z" transform="translate(432.85 63.033)" fill="#2e2e2e" fill-rule="evenodd"/>
    <path id="Path_48362" data-name="Path 48362" d="M1401.64,150.659c.237-.237-2.017,0-2.758-.208s-.148,0,0,0h.534A13.888,13.888,0,0,1,1401.64,150.659Z" transform="translate(318.776 62.894)" fill="#2e2e2e" fill-rule="evenodd"/>
    <path id="Path_48363" data-name="Path 48363" d="M1373.462,147.78h0Z" transform="translate(192.496 57.824)" fill="#2e2e2e" fill-rule="evenodd"/>
    <path id="Path_48364" data-name="Path 48364" d="M1345,150.15c-1.512,0,.267.178-1.246.208h1.423C1343.72,150.269,1346.419,150.269,1345,150.15Z" transform="translate(115.516 62.483)" fill="#2e2e2e" fill-rule="evenodd"/>
    <path id="Path_48365" data-name="Path 48365" d="M1340.955,150.038c-1.512-.208,0,.237-1.453,0a5.1,5.1,0,0,0,1.69,0Z" transform="translate(123.388 62.15)" fill="#2e2e2e" fill-rule="evenodd"/>
  </g>
</svg>
