<svg xmlns="http://www.w3.org/2000/svg" xmlns:xlink="http://www.w3.org/1999/xlink" width="2014.783" height="550.08" viewBox="0 0 2014.783 550.08">
  <defs>
    <radialGradient id="radial-gradient" cx="0.5" cy="0.5" r="282.143" gradientTransform="matrix(-1, 0, 0, 0.002, 1, 0.499)" gradientUnits="objectBoundingBox">
      <stop offset="0" stop-color="#fff"/>
      <stop offset="1" stop-color="#fff"/>
    </radialGradient>
  </defs>
  <g id="Group_766" data-name="Group 766" transform="translate(0 0.001)" opacity="0.4">
    <path id="Path_51944" data-name="Path 51944" d="M-32.68,515.1c2.08,0,4.87,2.88,2.61,4.65-1.08-.39-2.14-.8-3.2-1.22s-2.13-.88-3.18-1.35a19.782,19.782,0,0,0,1.88-1Z" transform="translate(2044.013 -458.641)" fill="url(#radial-gradient)"/>
    <path id="Path_51945" data-name="Path 51945" d="M-22.526,537.31a15.934,15.934,0,0,1-3.87-.68,14,14,0,0,1-3.78-1.71,11.71,11.71,0,0,1-5-6.93,14.061,14.061,0,0,0,5.8,2.32,25.261,25.261,0,0,1,6.86,2.38,3.47,3.47,0,0,0,2-3.21,4.08,4.08,0,0,0-1.67-3.23c.92.26,1.51-.72,2.21-1.62s1.75-1.56,3.81-.84c1.51,6.19-2.53,10.47-9.19,10.15C-25.356,535.79-23.486,536.52-22.526,537.31Z" transform="translate(2029.359 -458.641)" fill="url(#radial-gradient)"/>
    <path id="Path_51946" data-name="Path 51946" d="M278.89,551.43l2.11-.53a4.06,4.06,0,0,1-2.11.53Z" transform="translate(1418.443 -458.641)" fill="url(#radial-gradient)"/>
    <path id="Path_51947" data-name="Path 51947" d="M472.421,523.33c1.43.45,1.9,1.22,1.86,1.82C473.011,524.45,471.981,523.83,472.421,523.33Z" transform="translate(1031.732 -458.641)" fill="url(#radial-gradient)"/>
    <path id="Path_51948" data-name="Path 51948" d="M506.22,523.61c.74-.05,1.34,0,2,0C507.36,524,506.56,524.2,506.22,523.61Z" transform="translate(963.893 -458.641)" fill="url(#radial-gradient)"/>
    <path id="Path_51949" data-name="Path 51949" d="M286.431,551.43,281,552.85C280.951,550.66,283.891,551.59,286.431,551.43Z" transform="translate(1410.902 -458.641)" fill="url(#radial-gradient)"/>
    <path id="Path_51950" data-name="Path 51950" d="M11,538.28a6,6,0,0,1,2.83,1.15,20.607,20.607,0,0,0-2.45-.17C11.24,538.92,11.14,538.63,11,538.28Z" transform="translate(1953.503 -458.641)" fill="url(#radial-gradient)"/>
    <path id="Path_51951" data-name="Path 51951" d="M193.21,565.75l1.58.14a17.317,17.317,0,0,1,1.08,2.79Z" transform="translate(1589.253 -458.641)" fill="url(#radial-gradient)"/>
    <path id="Path_51952" data-name="Path 51952" d="M131.24,571.55c-1.51.15-1.69-5.49-2.12-8,.71,2.36,1.74,3.53,3,4a12.63,12.63,0,0,1-.88,4Z" transform="translate(1717.093 -458.641)" fill="url(#radial-gradient)"/>
    <path id="Path_51953" data-name="Path 51953" d="M22.2,563l2,.54C23.66,563.36,22.8,563.24,22.2,563Z" transform="translate(1931.933 -458.641)" fill="url(#radial-gradient)"/>
    <path id="Path_51954" data-name="Path 51954" d="M243.95,562.39a5.85,5.85,0,0,1-.81,1.94A4,4,0,0,1,243.95,562.39Z" transform="translate(1491.243 -458.641)" fill="url(#radial-gradient)"/>
    <path id="Path_51955" data-name="Path 51955" d="M1894.737,865.87a8.716,8.716,0,0,1-.42.91C1894.207,866.11,1894.267,865.7,1894.737,865.87Z" transform="translate(-1810.675 -458.641)" fill="url(#radial-gradient)"/>
    <path id="Path_51956" data-name="Path 51956" d="M1974.38,859.22l.83.72a30.535,30.535,0,0,1-1.14,2.95Z" transform="translate(-1970.948 -458.641)" fill="url(#radial-gradient)"/>
    <path id="Path_51957" data-name="Path 51957" d="M567.176,519.17a1.461,1.461,0,0,1,.27-.06C568.866,520,568.026,519.74,567.176,519.17Z" transform="translate(842.946 -458.641)" fill="url(#radial-gradient)"/>
    <path id="Path_51958" data-name="Path 51958" d="M1065.086,694.35c1.71-7.8-11.91,1.25-8.09-8.94C1057.706,687.66,1069.066,687,1065.086,694.35Z" transform="translate(-143.913 -458.641)" fill="url(#radial-gradient)"/>
    <path id="Path_51959" data-name="Path 51959" d="M17.55,539.29a19.547,19.547,0,0,0-2.37.4,4.78,4.78,0,0,1,2.37-.4Z" transform="translate(1945.603 -458.641)" fill="url(#radial-gradient)"/>
    <path id="Path_51960" data-name="Path 51960" d="M1064.82,685.41h0l.43-1A8.132,8.132,0,0,0,1064.82,685.41Z" transform="translate(-151.737 -458.641)" fill="url(#radial-gradient)"/>
    <path id="Path_51961" data-name="Path 51961" d="M698.22,512.27a7.049,7.049,0,0,1,.95-2.64,4.62,4.62,0,0,1-.95,2.64Z" transform="translate(580.943 -458.641)" fill="url(#radial-gradient)"/>
    <path id="Path_51962" data-name="Path 51962" d="M603.33,503c-.86.16-1.71.29-2.57.47A6.239,6.239,0,0,1,603.33,503Z" transform="translate(774.243 -458.641)" fill="url(#radial-gradient)"/>
    <path id="Path_51963" data-name="Path 51963" d="M754.55,515.79c-1.18.79-1.4,1.66-3.39,1.45a2.771,2.771,0,0,1,.34-.82C752.36,517,753.32,517.07,754.55,515.79Z" transform="translate(472.623 -458.641)" fill="url(#radial-gradient)"/>
    <path id="Path_51964" data-name="Path 51964" d="M800.5,533.78a10.51,10.51,0,0,1,.52-1.42c.54-.1,1.17-.25,1.72-.36Z" transform="translate(375.093 -458.641)" fill="url(#radial-gradient)"/>
    <path id="Path_51965" data-name="Path 51965" d="M1743.5,928.9a18,18,0,0,0-3.88,4.09C1741.583,929.41,1734.313,925.66,1743.5,928.9Z" transform="translate(-1503.901 -458.641)" fill="url(#radial-gradient)"/>
    <path id="Path_51966" data-name="Path 51966" d="M15.137,541.38c-.59-1.34-1.15-1.94-2-2.09a16.39,16.39,0,0,1,1.71,0,3,3,0,0,1,.29,2.09Z" transform="translate(1949.986 -458.641)" fill="url(#radial-gradient)"/>
    <path id="Path_51967" data-name="Path 51967" d="M774.64,473.86l-4.43,1.71c-1.48.56-2.92,1.22-4.38,1.83a33.341,33.341,0,0,1,4-1.95C771.39,474.87,773.02,474.33,774.64,473.86Z" transform="translate(437.863 -458.641)" fill="url(#radial-gradient)"/>
    <path id="Path_51968" data-name="Path 51968" d="M1364.56,908.35l-2,.26a1.93,1.93,0,0,1,2-.26Z" transform="translate(-748.787 -458.641)" fill="url(#radial-gradient)"/>
    <path id="Path_51969" data-name="Path 51969" d="M806.46,485.7a13.39,13.39,0,0,1-3.6,5.45,4.91,4.91,0,0,1-1.52-1C803.01,488.65,804.74,487.2,806.46,485.7Z" transform="translate(370.533 -458.641)" fill="url(#radial-gradient)"/>
    <path id="Path_51970" data-name="Path 51970" d="M1742.631,933Z" transform="translate(-1506.938 -458.641)" fill="url(#radial-gradient)"/>
    <path id="Path_51971" data-name="Path 51971" d="M168.6,902c7.83,2.73,1.17,8.15,1.38,12.74,4.33,2.73,5.88,1.85,6.89,0s1.51-4.69,3.74-5.93c5.16,3.85,7.46,11.82,12,13.06.71-1,1.7-1.17,1.19-3a12,12,0,0,0,4.78,4.43,54.011,54.011,0,0,0,6.69,2.77c4.69,1.76,9.45,3.73,12,8.42a4.42,4.42,0,0,0,1.49-1.46,25.492,25.492,0,0,0-4.08,9.35c1.79.64,3.13,2.27,4.39,3.18s2.4,1.18,3.76-1c-2.27-.49-1.9-2.41-2.51-4.15l3.21,3.08c5.36-5.69-4.51-3.77-3-8.69,6.68,4.24,13.78,12.23,20,12,2.94-6.23-12.61-6-3.48-9.65h-9.41c9.6-8.42-5.47-.78,3.79-10.07,11.84,1.3,11.74,7.07,23.64,7.93,1.65,4.3-2.22,5.2-.55,9.51,7.39,5.31,11.63,2.07,15.19-1.31s6.44-6.5,11.47-.8c1.09,2.55,1.5,6,2.85,8.47a5.729,5.729,0,0,0,2.91,2.77,6.221,6.221,0,0,0,2.35.4,12.522,12.522,0,0,0,3.14-.6l-1.5-8c11.29,1.18,4.44,12,17.15,8.94-1.62-3.35-8.43-4-6.57-4.65,8.61-4.66,4.65,5.23,10.57,6.26l2.25-6.53a136.739,136.739,0,0,1,18.26,6c1.58.58,3.16,1.21,4.76,1.74s3.23,1,4.86,1.47a101.658,101.658,0,0,0,9.89,2.38c-.58-2.08-2.68-4.4.6-6.2a60.346,60.346,0,0,0,6.31,1.49,50.613,50.613,0,0,0,6.52.72c2.19.12,4.41.2,6.63.11s4.46-.23,6.68-.44,4.44-.53,6.64-.89,4.38-.75,6.53-1.2c4.29-1,8.47-2,12.44-3.12l6.33,5.67c1.44-.11,2.55-2.75,1-3.82,6.16-2.55.49,3.7,3.63,5.85,3.63.22,4.55-3.62,2.19-5.26,1.42.55,3,1.1,4.67,1.63s3.48,1,5.36,1.41,3.84.82,5.84,1.13,4,.49,6.07.61c8.14.51,16.27-.7,21.64-4.66l-2.52-1.41a7,7,0,0,1,5.66,0,21.717,21.717,0,0,1,4.57,3c2.89,2.16,5.73,4,9.46.53l-1.8-.73c9.62-3,20-4.52,29.66-6.93a74.36,74.36,0,0,0,13.54-4.67,39.072,39.072,0,0,0,5.83-3.34,31.789,31.789,0,0,0,4.92-4.32,4.56,4.56,0,0,0,5,1.74,32.346,32.346,0,0,0,6.29-2.5c2.16-1,4.27-1.9,6.17-1.9s3.61.94,4.92,3.6a41.317,41.317,0,0,0,4.63-5.73c1.06-1.56,1.8-2.85,2.69-4.13,1.8-2.52,4.16-5.14,10.65-9.94,3.59-2.19,8.67,4.27,14,3.19l-2.46-5.66q4.54,1.44,9.19,2.84c.1-2.75.15-5.53.18-8.29l5.07-.77c-1.57,1.19-2.47,4.33-1.42,5.79a12.721,12.721,0,0,0,5.75-2.36,20.777,20.777,0,0,0,4.5-4.58,20.3,20.3,0,0,0,2.67-4.89,5.18,5.18,0,0,0,.29-3.48c3-.71,6.06-1.4,9.09-2.15l9.09-2.4c-1.65-1.9-4.68-1.08-7.52-1.23,5.72.25,5.28-1.37,4.67-3s-1.33-3.21,3.88-3.11c-.25,1.81,2.49,2.77,3.33,3.71a11.8,11.8,0,0,1,2.41-4,27.5,27.5,0,0,1,4.08-3.85,44.922,44.922,0,0,1,5.06-3.37,46.237,46.237,0,0,1,5.27-2.71l-3.62-2.65c1.26-1.06,2.59-2.07,3.94-3.07s2.72-2,4.13-3l8.77-5.87q4.5-2.895,9-6.2c1.49-1.09,3-2.16,4.44-3.34s2.86-2.4,4.25-3.66c-2.69,5.05,3,9.8,6.9,7.33l-3-6c4.85,1.07-1.85,4.94,5.89,4.65,1.9-2.17,1.31-4.25-.17-5.61a7.6,7.6,0,0,0-5.82-1.82c2.21-.95,4.37-2,6.57-3-1-1.69-2.91-1.34-4.9-2.87,2.4.52,3.45-2.7,4.83-5.72s3.06-6,7-4.92l-1.09-1.65c2.7-2.62,5.08-4.93,7.32-6.89s4.33-3.68,6.34-5.39,4-3.29,6-5,4.07-3.69,6.28-5.94c4.29,3.65,6.74-.82,12.66-.58,5-8.12,8.68-18.88,16.65-27.07,7.45-4.15,5.12,1.41,10,.93-3.43-3.85,4.57-12.08-2.14-10.1,9.86-9.73,12.52-12.53,27.56-22.69.24,2.83-.54,5,1.5,5.39,2.77-1.77,3.34-6.8,1.24-8.14l-1,.26c9.62-4.61,14.73-15.52,20.33-25.68,2.76-5.09,5.51-10.09,8.87-13.89s7.12-6.65,11.89-7.37l-1,.21,16-7c5.15-5.65-6,.12-3.84-6,9.61-2.64,14.64-7.53,19.38-12.25a94.221,94.221,0,0,1,7.12-6.88,27.36,27.36,0,0,1,9.28-5,16.53,16.53,0,0,1,5-12c3.15-3.38,7.45-6.31,12-9.16s9.27-5.48,13.29-8.55,7.38-6.39,9.1-10.6l1.35,3.42c5.24.54,2.7-4.47,4.64-6.81,1.24,2.49-1.66,5.1,1.45,5.25,14.93-7.83,28.42-18.53,41.78-29.79s26.37-23.32,40.24-33.43c5.13-3.63,9-.53,12.74,1.51s7.28,3.08,12-4.51l-7.18-3.48a83.749,83.749,0,0,0,18.24-6.56c5.83-2.73,11.42-5.93,17-9.14s11.21-6.34,17-9a82.912,82.912,0,0,1,18.11-6.18c-2-.7-3-2.49-5.11-1.35,2.57-6.66,17.48-8.82,19.2-5.32,3.34-2-.7-3.57.64-6.39,1.82-2.4,5.51-2.41,8.79-2.51s6.16-.29,6.49-3c.13-.91-2-.83-3-.75,4.1.68,14.68-7,13.79-.6a23.1,23.1,0,0,1,6-3.45,63.689,63.689,0,0,1,6.37-1.89c4.18-1.09,8.09-2.15,11-5.07,3.42,2,7,0,10.23-1.68s6.27-2.84,8.43,1c-1.83-4.2,1.56-7.2,6.29-8.93s10.75-2.14,14.28-.86c-2.74-2.06,4.25-4.18.9-7.15,6.74-1.81,13.3-1.94,13.33,2.9,4.8-6.76,11.67-6.2,17.58-5.79,6,.61,11.12,1,13.39-6.5l4,.12,3.95.23,7.75.42,7.54.32,7.44.53,7.28.43,3.58.18c1.19,0,2.39.2,3.58.29q7.11.6,14,1c-.49-4.49-5.65-4.43-10.63-4.42a23.419,23.419,0,0,1-6.76-.6,3.81,3.81,0,0,1-3-4.05c1.13.13,2.23.23,3.32.42s2.13.4,3.17.63c2.06.44,4,.92,5.93,1.42l10.83,3a65.06,65.06,0,0,0,10.6,2.25,46.732,46.732,0,0,0,11.83.19c2.26-.56,1.66-1.56.3-2.61s-3.49-2.13-4.24-2.91a105.782,105.782,0,0,0,12.91,2l12.45.87a101.681,101.681,0,0,1,12,1.39,46,46,0,0,1,11.35,3.48c.06-.84-1.47-1.95-3-2.82,3,.66,7.17-.46,6.3,3.56l-2.78-1.46c-2.75,2.67-.15,6.11,3.08,9.28s7.06,6.21,7.09,7.8c-1.65-6.16,2.13-6.39,5.61-7s6.68-1.61,3.84-9.58c1.83,1.08,4,3.38,3.09,6,3-.33,4.19-1.77,1.75-5.31,5.15,1.93,6.54,3.9,7.89,5.49s2.6,2.91,7.35,3.7c.32-2-1.46-3.05-2-5.52a38.742,38.742,0,0,0,6.7,6.42,16.49,16.49,0,0,0,9.79,2.83c-.25-1.27,1-2.62-1.41-3.06,13.59,3.25,21.12,14.77,36.66,14.22-2.57-9.37,5.61-1.71,7.94-8.85l7.41,3.81-3.93,2.87c7,1.35,12,8,18.42,6.81l-4.52-4.09c4.23,1.38,8.45,2.71,12.68,4.05l-7.92,1.29c6.24,5.18-2.66,9.1,7,8.93-1.73-1.13,7,1.32,11.45-2.27a24.232,24.232,0,0,0,4.81,4.13,9.84,9.84,0,0,0,6.72,1.21c1.79-2.09.49-8.31,1.67-9.7,2.2,6.76,15.9,4.82,19,12.14-1.15-1.8-.51-5.66.1-6.37l1.93,5.5c3.52-1,4.13-1.7,4.17-4.87,9.85.84-4.77,8.77,7.47,6.83-.83-.57-.27-1.24-2-2.34,11.92,0,21.81,7.07,32.88,6.42,4.36-6.88-9-3.38-4.35-9,7.52,2,15.09,5.47,22.69,8.55a112.82,112.82,0,0,0,11.4,4.07,47.791,47.791,0,0,0,11.4,1.87l-2.9.42c.53,10.78,11.85-3.52,18.67,2.47-1.74-1-1.6-6.16-1.26-4.92,10.43-.33,20.47,5.52,35.58,10.71l-1.58-2.94c6.32-1.66,16,.62,22.69.1,1.62,2.92,5.4,2.91,2.68,6.59a24.92,24.92,0,0,1,15.29-3.74c4.83.35,9.44,1.95,14,3.63,9.06,3.41,17.88,6.93,27.41,1.33-2.13-.23-4.87-2.85-3.17-2.7,5,1.29,10,2.65,15,3.88-1.61,4.49-2.24,2.63-5.76,5.93,1.69,2.91,5.82,5.36,9.62,5.68-6.62-3.62.69-7.39,3.86-9.71-.62,1.37.27,3-.1,4.42,8.64-7.53.58,9.38,11.93,4.76l-.39-2.47c4,1.57,7.51,5,12,4.64,2.22-5.2-4.16-2.8-4.12-7.2,6.14.75,11.48,11,17.45,6.06-2.53-1.67-6.3-2-8.82-3.63,6.53-5.83,7.11-4.18,11.69-4.87l-.45.12,10.62-2.2-2.77,1.54c6.88,14.36,15.56,3.56,25.5,13.16-9.69-9.15-1.41-5.08-1.87-11.17,2.75-1.54,6.87-3.22,5.81-5,4.67,5.12,8.37-3.42,15,4,.39-1.94,5.26,0,4.36-4.92,6.32,1.79-1.65,3.33-1.22,5.8,4.79,3.52,10.67,1.73,17.06.27s12.93-2.68,19.81,1.83a47.46,47.46,0,0,1,13.11,6.62c3.59,2.34,7.14,4.6,13,5.63,1.75-1.75.75-3.43-.63-4.68a14.756,14.756,0,0,0-3.17-2.08c5.73-3.42,10.06-3.47,16-2.28-1.42-1.46-.5-3.09.69-5.56,2.18-.15,3.25,1.39,4.44,2.51s2.52,1.78,5-.35c-1.55-1.87-3.6-4.88-6.06-6.57,5.08.66,10.85,2.79,16.45,2.58,0-1.84-1.17-2.74-2.65-3.43a30.126,30.126,0,0,1-4.42-1.9c1.45,0,3-.25,4.76-.38s3.44-.33,5.09-.44c3.37-.12,6.52.11,8.64,2-.77,1.2-1.62,2.35-2.49,3.5,2.1-.77-1.16-4.6-2.92-4.8-3.1-.85-4.41.25-5.07,1.84a9.121,9.121,0,0,0-.26,4.61c1.32-.1,2.67-.16,4-.3.24,3-.69,4.8-2.26,5.85a10.55,10.55,0,0,1-6.27,1c-4.88-.33-10.33-2.24-14.08-1.13,1.63,2.52,3.31,5,5.06,7.41-3.29-1.6-6.45-3.32-9.52-5.14-1.33,2.42-1.89,7.23,2.4,7.77-2.6,2.54-4.08,2-5.37,1.5s-2.47-1-4.76,1.63c-.48.78-.18,1.14.39,1.4-2.06-.56-4.1-1.21-6.11-1.83,1.31,1.63-.45,6,3.08,4.38-5.11,2.94-9.61,1.67-13.11.46s-6.12-2.32-8,.88l.9.49c-7.39-1.26-7.7-2.85-7.61-4.91s.6-4.67-4.69-8.29q-3.66,7.5-7.56,14.92l-1.3-6.09c-1.5.18-4.45.52-4,3-5.37-4.39,1-2.61-2-6.68-7.33,5.27-19.51-3.38-21.54,6.27-2.35-4.74,7-3.3-.49-6.84-2.65,10.35-8.7-2.23-15.43,2.24,1.72,5.49,8,3,1.27,7.43-3.45-9.31-12.81,1.38-18.22-.74.17-7.28-11.78-3.73-20.83-6.76.42,2.46-17.62,2.77-26.41,4.71l.16,1.23c-1.09-7.46-10-6.8-16.33-8.85-.12,4.4.89,6.23,4.22,8.48l-6.06-.54c-1.23-2.47-3-3.83-6.86-5l1,5.61c-8.06-1.07-15.64-7.93-26.35-5.3-.06-5.15,9.6-13.34-.94-17.87-.68,2.71-1.56,7.38,1.18,8.81-.9-.46-3.1-2.64-5.1-1.66l3.89,5.09c-4.91,1.55-2.07-4.13-5.87-4.09-.33,3.94-3.07,2.52-2.86,5.69.93.48,3.45-1.28,4.74.41-4.32.26-9.7,2.05-11.72,4.85.61-2.19.56-5.28-2.49-6.12-8-1.13-3.27,4.43-8.18,5.93-1.65-3-7.1-.72-6.57-6.6-2.35-.24-3.1,2.45-4.19,3.93-1.94-1.53-6.78-2.27-10.45-3.35s-6.18-2.54-3.46-5.36l1.11-.28c-.18-.14-.41-.18-.64-.34h0c-6.44-3.76-13.58-3.82-20.79-3.46s-14.45,1-21-1.18l-.25,2c-7.74-3.31-17.7-3.93-22.81-8.95-2.37-.34-6.13,2.74-5.47,5.22-5.92-2.39-6.25-4.72-15.62-2.9,5.63,4.38-2.6,2.69,5.93,3.5-8.23.42-10.56,3.26-18.26-3.43,2.1,5.48-7,5.27-10.58,3.13l6.18-2.62c-4.14-1.45-7.93-1.63-11.79-1.85l.94,6.91a18.3,18.3,0,0,1-11.95-.54,59.465,59.465,0,0,1-10.08-5.5c-6.37-4-12.35-7.11-19.78-1.66-3.44-5.4,9.43-1.53,6.58-7.62-7.61-.54-17.2,7.35-19.56,6.92-11,1.66-7.69-11.42-18.87-11.09,1.84-2,4.37-8-3.13-11.8-7.6-.64-11.17,7.89-6.84,10.72,1.74.56,2.76,0,2.85-.81,2.23,1.33,5.2,3,1.72,4.89l-.49-2.52c-4.2,1.65-14.4-.75-12.79,3.56-5.17-3.4-1.6-4.32,2.81-4.65-10.26,1.37-14.92-3-25.15-2.85,1.82-1,3.83-3.38,2.28-3.68-14.92-.16-5.36-5.74-14.84-8.79-6.23,2.4.2,8.84-8.9,3.88-6.41,1.19-2.51,5.92-.55,8.29-7.92-6.3-17-.35-22.15-.47l4.23,2.76a17.329,17.329,0,0,0-7.08-2.46l3.51-4.17c-2.86.31-5.15-.1-5.46,1.85-2.23-3.58,3.58-7.36-1.22-12.58-4.05,1.73-10.65-4.49-12.94,1.51,11.73-.14-2.3,6,7.1,8.68a10.3,10.3,0,0,0-6.81-1.07c-.52.63.16,1.36.84,1.84-5.85,1.85-6.77,0-7.67-2.7s-1.77-6-7.39-6.74c.9,3.71-3.55,6.3-5.25,5.29,4.48.56,3-5.56-.81-8.84-7.57,1.78-7.59-3-11.43-3.18l4.48-.76c-1-3.68-4.75-3.75-9.72-5.32-.72,2.71,4.41,2.34,2.47,3.38-2.48-3.38-5.86-2.09-9.47-.57s-7.45,3.45-11.21,1.06c-3.74,2.18-.76,6.62-4,8.1-4.15-2.49-6.56-1.41-9-.17s-4.79,2.66-9.23.68c1.3-2.37,2.07-3.25,1.73-4.15a4.352,4.352,0,0,0-1.44-1.52c-.81-.65-2-1.45-3.58-2.57,2.49.48,5,1.15,7.46,1.73s4.94,1.15,7.4,1.85c-3.1-2.46-6.25-4.75-9.46-7.14a23.329,23.329,0,0,1,6.83,1.48c2.15.69,4.08,1.39,5.46,1-4.46-4.11-4.08-2.9-1.71-6.76a7.711,7.711,0,0,1-2.43,1.78,5.57,5.57,0,0,1-2.38.52,12.82,12.82,0,0,1-4.77-1.32,21.215,21.215,0,0,0-5-1.74,7.14,7.14,0,0,0-5.28,1.22l.42,11.81c-5.24,2.62-9.89,1.48-15.1,0a47.706,47.706,0,0,0-8.26-1.91,23.472,23.472,0,0,0-9.44,1.06l4.23-2.53c-1.17-2.23-3.35-2.16-5.82-1.71s-5.22,1.24-7.6.71c1,3.84-1.63,5.7-3.15,8.42-.1-1.46-2.59-1-5.38-1.13s-5.87-.84-7.2-4.55l-5.08,6.21c-5.29,2.18-9,0-12.79-2s-7.58-4.24-12.82-2.26c4.3,3.36.19,7.25,8,8.5-3.51.9-6.48,2.37-7.24-.27-.71,1.44-3.47.89-6.38.49s-5.93-.56-7,1.7c-1-.62-1.9-1.88-3.06-2.81a4,4,0,0,0-4.49-.71,2.56,2.56,0,0,0,.59,1.85c-.58-1.86-7-.5-4.85-5.8a17.52,17.52,0,0,1-7.9,8.07c-.82.45-1.68.83-2.55,1.21s-1.77.76-2.67,1.1c-1.82.67-3.7,1.25-5.57,1.82-7.52,2.15-14.89,4.48-17.51,11.21-2,.46-4.11.9-6.22,1.47s-4.25,1.18-6.36,1.8-4.2,1.28-6.18,1.94-3.87,1.32-5.57,2c.92.88.83,1.78,1.93.82-7.68,7.61-10.43-7.71-19.29,1-1.3,4.19.47,4.28,2.26,3.81s3.66-1.43,2.49.42c2,6.18-1.24,7.34-5.56,8.19s-9.67,1.42-11.4,6.63l2-.18c-1.64,3.33-5.41,3.88-9.82,4.27a65.891,65.891,0,0,0-6.9.81,18.64,18.64,0,0,0-6.64,2.6,2.76,2.76,0,0,1,1,1.7c-9-2.74-21.24,1.53-30.41,4.59,5.06,2.94,5.07.24,6,5.6-4,1.45-3-7.85-11.08-4.88-1,3.79-5.11,8.94-3,14.11l7.05-3.71c0,8.22-9.05,4.9-12.05,8.13l2,2.42c-5.51,2.65-9.3,2.3-13.1,2.19a20,20,0,0,0-13.07,3.71l-.06-2.73c-10.21-2.94-2.88,6.87-12,5.69l2.3,7.86c-5,.82-18.1,2.32-26.11,5.66,7.25,2.33,17.21-.47,24.25-.75-4,2.5-13.72,8-17.9,6,2-.37,5,0,6-2-8.19-2.2-16.23-.59-24,4.65,4.89,5.92.36,10.09-5.24,14.51s-12.25,9.19-11.62,16a36.161,36.161,0,0,0-11.19,5.44,73.179,73.179,0,0,0-9.53,8.12c-3,3-6,6.16-9.27,9.23a80.854,80.854,0,0,1-10.49,8.87c-2-13.51-4.62,3.1-11.22-7.2-4,2.18-5.19,3.4-5,4.27-2,4.73-4,9.39-5.89,14.16-.18,4.78,5-.6,6.37,1.79-6.82,6.88.17,6.59-2.61,13.13a3.53,3.53,0,0,0-4.36-2.31,9.53,9.53,0,0,0-5.32,4.46c.71-3.13,1.47-6.21,2.26-9.29a14.87,14.87,0,0,0-4.32,1.71,7.841,7.841,0,0,0-2.39,2.33,12.79,12.79,0,0,0-1.63,5.55,13.061,13.061,0,0,1-1.62,5.55,7.89,7.89,0,0,1-2.37,2.34,15.28,15.28,0,0,1-4.21,1.88h5.72c-3.32,1.46-8,5.75-13.37,9.33s-11.13,6.67-17,5.48c.08,1.87,1.26,5.4,4.06,3.92-5.36,6.32-13.77,10.86-21.33,15.83s-14.43,10.13-16.63,17l3.07,1.09c-2.76,1.71-7.85.22-8.28,5.19,1.06.68,3.06,1.06,2.21,2.26-1.87.54-9.51,2.69-11,7l4.9-.43c-8.14,14.92-23.12,13.61-34,22.7,3.29,2.93,3.24,7.34,1.95,11.76a56.887,56.887,0,0,1-5.64,11.79l1.08.67a64.877,64.877,0,0,1-10.07,9.76,100.69,100.69,0,0,1-11,7.23c-3.79,2.15-7.63,4.15-11.5,6.28s-7.85,4.31-11.79,6.91c-.46,3.7-2.34,7.44-5,11.21a92.626,92.626,0,0,1-10.36,11.22c-8,7.46-17.26,14.82-23.4,22.65,1.38-3.07-4.44-5.18-7.68-4-1.29,2-4.67,2.53-7.06,3.32s-3.84,1.77-1.27,4.92l1.23-1c.85,4.19-1,7.16-3.71,9.59s-6.53,4.2-9.5,6.24l-6.57-8.34c-3.84,11.36-15.3,16.46-25.91,20.08-2.63,1-5.27,1.76-7.7,2.67a58.318,58.318,0,0,0-6.7,2.91c-4,2.09-6.86,4.88-7.79,9-5.21-.61-10.27,1.71-15.39.91l2.38,5.14c-2.76,1.51-5.16,2.89-7.49,4s-4.54,2.2-6.87,3.2a81.033,81.033,0,0,1-7.63,2.78c-2.82.9-6,1.82-9.77,2.68l4.29,2.85c-4.12,1.55-8-1.45-11.81-4.6s-7.45-6.53-11.24-5.54l.12,8.8a74.592,74.592,0,0,0-10.66,4c-3.52,1.48-7,3.08-10.61,4.44a51.651,51.651,0,0,1-11,2.83,30.821,30.821,0,0,1-11.68-.91c.48,1.17,1.39,3.47,3.86,3.31-.87.21-1.92.54-3.1.94l-3.89,1.25a59.285,59.285,0,0,1-8.63,2.26c-5.64.88-10.28.09-9.88-5.86.5,3.78-3.34,4.49-8.34,4a51.246,51.246,0,0,1-8-1.51c-2.67-.68-5.23-1.43-7.32-2l1.85,5.4c-3.79-3.17-5.76-5.29-8-6.69s-4.7-2.12-9.46-2.78c-2.16.88-1.61,4.59,1.25,2.94-7.24,3.46-6.14-4.76-14.93-1.34l3.55,3.38c-7.65.83-7.15-1.08-11.49-5.11-2.43-1-6-.54-9.13.75s-5.82,3.49-6.38,6a10,10,0,0,0-3.57-4.54,6.9,6.9,0,0,0-6.14-1.23c-.63,1.89,1,3.09,1.81,3.68-6.44,1.87-11.2,0-15.39-1.51s-7.84-3-12.4-.5c-.3,1.83-.94,2.73-1.7,3.21,5.1.25,9.72.39,13,.39s5.12-.15,4.74-.37c-.13,5.14-8.57,5.76-2.16,13.07-3.33-2-7.76-5.35-12.33-7.89a41.347,41.347,0,0,0-6.85-3.11,13.07,13.07,0,0,0-6.52-.56,6.574,6.574,0,0,0-1.22,1.68l.79.65a6.59,6.59,0,0,1-5-1.28,21.581,21.581,0,0,1-6.84.95c-1.42,4.26-9.74,1.13-13.88.81,1-5.54-4.39-5.34,1.2-9.29-.7.31.68.77,3.35,1.36a5.192,5.192,0,0,1,1.67.8c-.06-.16-.14-.35-.22-.52,2.65.5,6.11,1.15,10.09,1.52a15.7,15.7,0,0,0-4.71-3.77,6.59,6.59,0,0,0-6.13.37c-1.64-3.86-3.43-7.84-4.47-9.74-3.24,3.53-7.69,6-11.64,8.13-2,1.1-3.81,2-5.29,3a8.759,8.759,0,0,0-3.19,3.08c-5.95-2.64-13.17-4.39-19.59-7-6.36-2.83-11.94-6.45-14.6-12.41-3.14-2.06-4.61,2.11-6.28,3.45,1.76,1.47,4.18,1.81,4.93,3.52a31.191,31.191,0,0,0-5.84-2.7c-2.2-.8-4.5-1.73-6.61-2.67-4.23-1.93-7.64-4.26-7.55-8-9.41,1.08,3.17,7.79-8.37,3.66l1,2.58a28.148,28.148,0,0,1-4.73.61,24.15,24.15,0,0,1-4.31-.32,26.945,26.945,0,0,1-7.66-2.52,46,46,0,0,1-6.77-4.26c-2.16-1.62-4.27-3.31-6.34-5.13-4.17-3.56-8.41-7-13.46-9.22a29.559,29.559,0,0,0-8.28-2.19,32.48,32.48,0,0,0-10.08.44c2-.28,3-.39,3.79-1.44-15.36-1.64-29.45-8.52-43.45-15a208.388,208.388,0,0,0-21.2-9,78.15,78.15,0,0,0-22.47-4.76c-8.56-1.38-7.56-6.08-10.84-11.39l-4.07,4.82-5.26-9.87c-4.63-4.86-11-3.65-17.6-3.15s-13.3.28-18.45-7.38l3.54-2.86c-5.45-1.64-15.24-9.6-16.33-5-.22-.92.1-4.62-2.79-3.62l-1.48,2.79-10.26-10.74c-10.69-2.45-3.8,12.09-18.23,6-4.75-3.57-11.08-15.36-8.2-16.34,2.19.85,6.26.76,7.76-2l-4.1-3.75c3.08-8.84,3.46-19.19,18-19.56l5.79,9,4.56-2.85L9,843.15c5.72-2,6.61,2.56,8.3,6.2a7.72,7.72,0,0,1,5.54-2.9l4.3,11.8c2.51-2.85-.57-8.23,5.68-7.55,2,5.5-7.06,5.73-2,11.09,5.71-2,6-5.68,9.1-.25,1.65-1.88,1.31-3.72-.07-5.52,2.89,4.51,10.34,6.06,10.4,11.54,6.26-2.88,13.3,7.58,16.52-.67.42,2.5,4.4,9.54,8,11.56-2.61-12.72,14.39,5.75,17.12-5.48.64,5.45,4.84,8.41,9.74,11.09,2.45,1.34,5.07,2.63,7.53,4.1a23.911,23.911,0,0,1,6.52,5.26c-.22-.9-.63-2.73-1.62-2.61,5.42,1.39,8-.64,12-.94-1.16,3.76.08,6.88,1.93,9.85s4.34,5.69,5.61,8.81c9.12-4.54-.43-10.06,4.26-16-2.69,5.77,8.58,10.2,4.51,14.28,6.53-2.46,5-.48,9.81-5.56-1.34,4.73-.37,5.57,1.17,6.11s3.65.72,4.6,4.28c8.72-1.91,5-7.93,11.66-2.29C174.213,907.76,168.6,902,168.6,902Zm183.32,60.95v-.12l-4-.66c.87.13,2.01.34,4,.76Zm16.21,1.24a59.9,59.9,0,0,1-7-.16c-.69,1.9-.2,3.93,1.45,3.92-.86-1.36,3.05-2.27,5.55-3.78ZM329.393,1000c2.65,1.18,3.7.13,4.2-1a27.511,27.511,0,0,1-4.71-1.24c0-.21-.19-.47-.24-.72a8.456,8.456,0,0,0,.75,2.96Z" transform="translate(16.94 -458.641)" fill="url(#radial-gradient)"/>
    <path id="Path_51972" data-name="Path 51972" d="M1635.61,992.06a3.908,3.908,0,0,0-1.06-.55,12.918,12.918,0,0,1,1.76-1c.26.64.53,1.27.75,1.88Z" transform="translate(-1293.277 -458.641)" fill="url(#radial-gradient)"/>
    <path id="Path_51973" data-name="Path 51973" d="M278.38,550.82l-.37.08a2.17,2.17,0,0,0,.84-.7C278.58,550.44,278.56,550.62,278.38,550.82Z" transform="translate(1421.473 -458.641)" fill="url(#radial-gradient)"/>
    <path id="Path_51974" data-name="Path 51974" d="M1416.71,483.19l.57,1.3-1.76-.54Z" transform="translate(-817.997 -28.301)" fill="url(#radial-gradient)"/>
    <path id="Path_51975" data-name="Path 51975" d="M183.53,541a2.79,2.79,0,0,1,1.31-1.34C184.76,540,184.2,540.49,183.53,541Z" transform="translate(1609.963 -458.641)" fill="url(#radial-gradient)"/>
    <path id="Path_51976" data-name="Path 51976" d="M139.51,542.71l5.72-1.65a26.515,26.515,0,0,1-5.72,1.65Z" transform="translate(1693.593 -458.641)" fill="url(#radial-gradient)"/>
    <path id="Path_51977" data-name="Path 51977" d="M114.2,541.73a9.46,9.46,0,0,1,.47,2.43h-.06Z" transform="translate(1749.463 -458.641)" fill="url(#radial-gradient)"/>
    <path id="Path_51978" data-name="Path 51978" d="M596.9,465.89a4.279,4.279,0,0,1-1.19-.4C592.966,464.06,594.866,464.73,596.9,465.89Z" transform="translate(787.097 -458.641)" fill="url(#radial-gradient)"/>
    <path id="Path_51979" data-name="Path 51979" d="M456.767,505.85a25.879,25.879,0,0,0-4-3.53C455.347,502.41,457.317,502.7,456.767,505.85Z" transform="translate(1068.705 -458.641)" fill="url(#radial-gradient)"/>
    <path id="Path_51980" data-name="Path 51980" d="M765.85,473.48v.09c-.36.08-.66.19-1,.29Z" transform="translate(447.633 -458.641)" fill="url(#radial-gradient)"/>
    <path id="Path_51981" data-name="Path 51981" d="M456.89,501.09a8.23,8.23,0,0,1,6.59,1.23C461.37,502.27,458.8,502.35,456.89,501.09Z" transform="translate(1057.963 -458.641)" fill="url(#radial-gradient)"/>
    <path id="Path_51982" data-name="Path 51982" d="M-9.41,530.63l.94-.75a2.07,2.07,0,0,0,.54.75Z" transform="translate(1995.673 -458.641)" fill="url(#radial-gradient)"/>
    <path id="Path_51983" data-name="Path 51983" d="M-10.89,530.63h1.48C-9.95,530.9-10.45,531.1-10.89,530.63Z" transform="translate(1998.633 -458.641)" fill="url(#radial-gradient)"/>
    <path id="Path_51984" data-name="Path 51984" d="M-10.86,530.5c-1.07,0-2.09.11-3.14.12C-13.11,530.16-12.21,529.41-10.86,530.5Z" transform="translate(2003.193 -458.641)" fill="url(#radial-gradient)"/>
    <path id="Path_51985" data-name="Path 51985" d="M25.97,542.28l-.68-2a5,5,0,0,1,.68,2Z" transform="translate(1927.073 -458.641)" fill="url(#radial-gradient)"/>
    <path id="Path_51986" data-name="Path 51986" d="M26,542.8c1.36-.31,3-1.56,4.72-2.57s3.59-1.87,5.49-1.49l.52,1.57c-1.05-1.39-2.94.07-5,1.44S27.43,544.44,26,542.8Z" transform="translate(1915.603 -458.641)" fill="url(#radial-gradient)"/>
    <path id="Path_51987" data-name="Path 51987" d="M76.68,567.69l10.44-1.21c-1.89,2.09-4.38,4.91.32,5.62C74.12,578.06,90.28,567.36,76.68,567.69Z" transform="translate(1814.213 -458.641)" fill="url(#radial-gradient)"/>
    <path id="Path_51988" data-name="Path 51988" d="M120.221,569.31c5.52,1.29-.23,3.15,0,4.39C116.781,571.54,115.941,571,120.221,569.31Z" transform="translate(1738.392 -458.641)" fill="url(#radial-gradient)"/>
    <path id="Path_51989" data-name="Path 51989" d="M352.964,545.42l-.21,5.13C348.643,549.17,353.053,548.59,352.964,545.42Z" transform="translate(1274.369 -458.641)" fill="url(#radial-gradient)"/>
    <path id="Path_51990" data-name="Path 51990" d="M421.06,81.86l4.61-2.44,1.16,4.95Z" transform="translate(1166.913 -28.301)" fill="url(#radial-gradient)"/>
    <path id="Path_51991" data-name="Path 51991" d="M462.26,113.18l1.73,1.05-6.75-3.1Z" transform="translate(1093.573 -28.301)" fill="url(#radial-gradient)"/>
    <path id="Path_51992" data-name="Path 51992" d="M790.368,534.81l-1.11-6.35C792.248,528.48,795.338,534.88,790.368,534.81Z" transform="translate(396.085 -458.641)" fill="url(#radial-gradient)"/>
    <path id="Path_51993" data-name="Path 51993" d="M947.919,604.08c.07,3.63-2.87,7.76-6.92,6.64C943.919,608.38,945.859,604.37,947.919,604.08Z" transform="translate(89.414 -458.641)" fill="url(#radial-gradient)"/>
    <path id="Path_51994" data-name="Path 51994" d="M1351.71,507.31l4.16-.02-6.7,1.95Z" transform="translate(-690.237 -28.301)" fill="url(#radial-gradient)"/>
  </g>
</svg>
